<svg xmlns="http://www.w3.org/2000/svg" xmlns:xlink="http://www.w3.org/1999/xlink" width="1200px" height="1200px" viewBox="0 0 1200 1200">
    <g id="44ad181b-2916-46cb-b744-2cba86a788d2">
<g style="">
		<g id="44ad181b-2916-46cb-b744-2cba86a788d2-child-0">
<path style="stroke: rgb(193,193,193); stroke-width: 0; stroke-dasharray: none; stroke-linecap: butt; stroke-dashoffset: 0; stroke-linejoin: miter; stroke-miterlimit: 4; fill: rgb(246,246,246); fill-rule: nonzero; opacity: 1;" transform="matrix(1.85828 0 0 1.858267 600.142289 600.472833) matrix(1 0 0 1 0 0)  translate(-313.077599, -313.254383)" d="M 301.38 616.09 C 299.67 615.04 297.76 612.75 297.15 611.00 C 296.11 608.01 296.31 607.48 300.52 602.32 C 304.84 597.01 306.45 596.84 303.50 602.00 C 300.96 606.45 301.62 610.82 305.40 614.60 C 308.49 617.69 308.60 618.00 306.65 618.00 C 305.47 617.99 303.10 617.14 301.38 616.09 Z M 320.60 614.60 C 324.38 610.82 325.04 606.45 322.50 602.00 C 319.56 596.86 321.15 597.11 325.51 602.46 C 329.98 607.95 330.01 608.04 328.59 611.44 C 327.13 614.93 322.71 618.00 319.15 618.00 C 317.50 618.00 317.73 617.47 320.60 614.60 Z M 250.00 615.43 C 235.16 612.22 222.76 602.38 215.84 588.34 C 212.80 582.15 212.50 580.73 212.50 572.52 C 212.50 565.09 212.90 562.76 214.74 559.31 C 218.74 551.83 227.55 547.00 237.18 547.00 C 246.66 547.00 256.00 554.60 256.00 562.32 C 256.00 565.76 252.35 570.00 249.40 570.00 C 246.01 570.00 245.41 567.64 247.91 564.13 C 251.30 559.37 250.05 554.65 244.43 550.95 C 241.35 548.91 233.00 548.22 233.00 550.00 C 233.00 550.55 234.17 551.00 235.60 551.00 C 239.13 551.00 245.26 557.13 244.82 560.22 C 244.34 563.65 241.65 562.96 240.39 559.08 C 236.87 548.18 222.53 550.27 216.89 562.50 C 212.33 572.39 217.22 590.30 227.21 600.30 C 236.89 609.99 252.78 614.89 270.26 613.58 C 279.73 612.87 286.40 611.18 280.20 611.06 C 270.45 610.88 263.75 599.49 268.43 591.05 L 269.79 588.60 L 271.91 592.05 C 273.08 593.95 274.55 597.22 275.19 599.32 C 275.83 601.42 277.46 604.01 278.81 605.07 C 281.36 607.07 287.45 607.70 288.46 606.06 C 288.81 605.51 287.69 605.34 285.75 605.65 C 283.36 606.04 281.77 605.64 279.98 604.18 C 278.61 603.08 277.83 601.84 278.24 601.43 C 278.65 601.01 279.78 601.38 280.74 602.24 C 282.88 604.14 291.15 604.99 291.70 603.37 C 291.97 602.59 290.70 602.39 287.66 602.73 C 284.07 603.14 282.83 602.83 281.12 601.12 C 279.28 599.28 278.03 593.00 279.51 593.00 C 279.79 593.00 281.88 594.35 284.16 596.00 C 289.78 600.07 294.71 600.07 299.34 596.01 C 303.18 592.63 306.74 585.21 307.63 578.68 C 308.90 569.42 302.90 558.00 296.77 558.00 C 294.82 558.00 294.79 558.11 296.35 559.83 C 297.93 561.58 298.58 564.00 297.46 564.00 C 297.17 564.00 295.87 563.30 294.57 562.45 C 291.37 560.35 287.30 561.52 285.47 565.05 C 283.94 568.02 284.32 570.35 286.81 573.25 C 288.99 575.79 289.71 575.41 289.21 571.99 C 288.66 568.22 290.43 566.00 294.00 566.00 C 297.45 566.00 299.33 568.19 299.33 572.21 C 299.33 580.10 288.03 581.40 283.67 574.01 C 278.41 565.11 286.10 554.07 296.73 555.27 C 314.97 557.33 314.13 588.72 295.37 606.01 C 285.22 615.37 267.09 619.13 250.00 615.43 Z M 307.77 615.22 C 299.71 610.32 303.45 598.01 313.00 598.01 C 317.28 598.01 321.82 601.50 322.54 605.35 C 323.47 610.32 319.99 615.95 316.00 615.93 C 315.17 615.92 315.73 615.25 317.24 614.43 C 320.06 612.90 321.66 609.16 320.63 606.48 C 319.79 604.28 317.03 603.50 314.87 604.85 C 313.43 605.75 312.54 605.73 311.00 604.77 C 306.54 601.98 302.93 608.93 306.81 612.81 C 307.88 613.88 309.37 614.97 310.12 615.24 C 310.88 615.51 311.27 615.98 310.99 616.29 C 310.71 616.60 309.26 616.12 307.77 615.22 Z M 352.35 615.91 C 339.60 613.78 329.69 607.43 323.11 597.17 C 311.49 579.07 314.75 556.91 329.27 555.27 C 339.90 554.07 347.59 565.11 342.33 574.01 C 337.97 581.40 326.67 580.10 326.67 572.21 C 326.67 568.19 328.55 566.00 332.00 566.00 C 335.57 566.00 337.34 568.22 336.79 571.99 C 336.29 575.41 337.01 575.79 339.19 573.25 C 341.68 570.35 342.06 568.02 340.53 565.05 C 338.67 561.46 334.63 560.35 331.31 562.53 C 328.12 564.62 327.28 563.75 329.39 560.53 C 330.97 558.12 330.95 558.00 329.10 558.00 C 325.47 558.00 321.11 562.83 319.39 568.74 C 317.50 575.25 317.99 580.78 321.11 588.04 C 325.70 598.71 333.83 601.88 341.57 596.03 C 346.50 592.30 347.00 592.30 347.00 596.00 C 347.00 600.77 343.70 603.34 338.34 602.73 C 335.30 602.39 334.03 602.59 334.30 603.37 C 334.85 604.99 343.12 604.14 345.26 602.24 C 346.22 601.38 347.35 601.01 347.76 601.43 C 348.17 601.84 347.39 603.08 346.02 604.18 C 344.23 605.64 342.64 606.04 340.25 605.65 C 338.31 605.34 337.19 605.51 337.54 606.06 C 338.56 607.72 344.65 607.06 347.25 605.02 C 348.64 603.92 350.08 601.79 350.46 600.27 C 350.83 598.74 352.29 595.52 353.70 593.10 L 356.26 588.69 L 357.60 591.10 C 362.30 599.58 355.63 610.87 345.80 611.06 C 339.60 611.18 346.27 612.87 355.74 613.58 C 378.28 615.27 398.46 606.16 405.75 591.00 C 408.58 585.12 411.01 575.62 410.98 570.54 C 410.89 554.06 390.24 544.73 385.61 559.08 C 384.35 562.96 381.66 563.65 381.18 560.22 C 380.74 557.13 386.87 551.00 390.40 551.00 C 391.83 551.00 393.00 550.55 393.00 550.00 C 393.00 548.22 384.65 548.91 381.57 550.95 C 375.95 554.65 374.70 559.37 378.09 564.13 C 380.59 567.64 379.99 570.00 376.60 570.00 C 373.65 570.00 370.00 565.76 370.00 562.32 C 370.00 554.60 379.34 547.00 388.82 547.00 C 398.45 547.00 407.26 551.83 411.26 559.31 C 413.11 562.77 413.50 565.08 413.49 572.50 C 413.48 580.47 413.12 582.25 410.38 588.06 C 406.16 597.00 396.60 607.09 388.65 610.99 C 377.92 616.26 364.97 618.01 352.35 615.91 Z M 309.22 613.06 C 305.70 609.84 305.21 607.90 307.46 606.04 C 308.61 605.08 309.38 605.15 311.15 606.39 C 313.19 607.82 313.55 607.81 315.17 606.34 C 316.63 605.02 317.24 604.96 318.48 605.98 C 319.32 606.68 320.00 607.89 320.00 608.68 C 320.00 610.00 314.26 616.00 313.00 616.00 C 312.70 616.00 311.00 614.68 309.22 613.06 Z M 244.89 609.63 C 229.04 604.03 220.90 594.63 217.41 577.89 C 214.53 564.08 219.00 555.59 230.25 553.48 C 232.76 553.01 234.00 553.15 234.00 553.89 C 234.00 554.50 233.36 555.00 232.58 555.00 C 230.29 555.00 224.85 560.12 223.36 563.67 C 219.71 572.42 222.65 583.42 231.06 592.40 C 239.38 601.30 245.79 604.25 258.00 604.81 C 267.12 605.23 267.65 605.38 271.25 608.62 L 275.01 612.00 L 263.25 611.98 C 253.53 611.96 250.36 611.55 244.89 609.63 Z M 354.61 608.74 C 358.37 605.36 358.81 605.23 368.00 604.81 C 380.21 604.25 386.62 601.30 394.94 592.40 C 403.35 583.42 406.29 572.42 402.64 563.67 C 401.15 560.12 395.71 555.00 393.42 555.00 C 392.64 555.00 392.00 554.55 392.00 554.00 C 392.00 552.36 396.08 552.86 400.65 555.07 C 409.42 559.32 411.64 569.04 407.17 583.68 C 404.65 591.95 400.47 597.93 393.54 603.17 C 385.10 609.55 379.31 611.24 364.11 611.77 L 350.73 612.24 L 354.61 608.74 Z M 215.50 597.72 C 211.86 595.77 205.96 590.96 200.50 585.50 C 189.62 574.62 178.72 561.29 180.04 560.48 C 181.36 559.66 181.25 555.34 179.84 552.68 C 179.21 551.48 175.84 547.41 172.35 543.63 C 165.65 536.38 162.97 530.62 164.59 526.99 C 165.45 525.09 165.82 525.25 170.79 529.60 C 177.03 535.05 179.78 540.13 183.44 552.92 C 186.56 563.84 188.78 568.54 192.40 571.92 C 195.66 574.96 196.64 574.13 194.55 570.09 C 192.19 565.53 193.42 566.34 196.31 571.25 C 199.11 576.00 205.23 582.34 203.14 578.32 C 202.51 577.11 202.00 572.94 202.00 569.03 C 202.00 561.21 200.25 555.80 197.07 553.81 C 194.43 552.16 194.39 550.61 197.00 551.29 C 199.72 552.00 199.58 549.79 196.69 546.43 C 195.25 544.76 193.38 543.75 191.69 543.75 C 190.21 543.75 189.00 543.22 189.00 542.58 C 189.00 540.59 191.27 539.00 194.11 539.00 C 197.99 539.00 201.60 543.75 203.04 550.74 C 204.69 558.82 205.93 560.60 205.97 554.95 C 206.01 548.81 202.37 541.78 195.15 534.08 C 189.82 528.39 189.50 527.80 191.27 526.86 C 194.08 525.35 197.72 526.63 199.53 529.76 L 201.11 532.50 L 200.56 529.00 C 199.78 524.07 193.87 518.65 189.91 519.23 C 187.43 519.59 187.00 519.32 187.00 517.38 C 187.00 514.64 190.47 512.00 194.07 512.00 C 202.10 512.00 208.93 522.71 209.92 536.81 L 210.52 545.50 L 211.77 540.75 C 212.46 538.14 214.31 534.56 215.88 532.80 C 218.72 529.62 218.74 529.62 219.47 531.89 C 220.65 535.63 219.21 540.37 214.83 547.13 C 208.41 557.03 207.04 560.71 207.07 568.00 C 207.09 575.17 208.55 580.19 212.23 585.80 C 217.68 594.12 222.00 601.00 221.76 600.97 C 221.62 600.96 218.80 599.50 215.50 597.72 Z M 405.67 598.42 C 410.05 592.19 416.29 581.32 417.61 577.62 C 419.58 572.14 419.34 562.34 417.13 557.50 C 416.12 555.30 413.44 550.63 411.17 547.13 C 406.83 540.43 405.35 535.63 406.50 531.99 C 407.19 529.82 407.20 529.82 410.03 532.52 C 411.75 534.17 413.37 537.25 414.16 540.37 L 415.46 545.50 L 416.07 536.81 C 417.07 522.70 423.91 512.00 431.93 512.00 C 435.49 512.00 439.00 514.63 439.00 517.31 C 438.99 519.13 438.41 519.51 435.52 519.57 C 431.74 519.65 428.60 521.94 426.40 526.20 C 424.42 530.02 424.58 533.42 426.57 529.76 C 428.26 526.64 431.91 525.35 434.74 526.86 C 436.53 527.82 436.26 528.33 431.31 533.57 C 422.76 542.61 418.17 552.37 420.03 557.52 C 420.62 559.15 420.93 558.79 421.79 555.50 C 422.37 553.30 423.14 550.03 423.50 548.23 C 424.92 541.25 432.14 536.54 435.80 540.20 C 437.91 542.31 437.15 544.00 434.07 544.00 C 432.10 544.00 430.47 544.86 429.07 546.63 C 426.41 550.01 426.38 551.97 429.00 551.29 C 431.61 550.61 431.57 552.16 428.93 553.81 C 425.75 555.80 424.00 561.21 424.00 569.03 C 424.00 572.94 423.48 577.11 422.85 578.32 L 421.71 580.50 L 423.92 578.53 C 425.14 577.45 427.53 574.41 429.24 571.78 C 432.77 566.33 433.81 565.54 431.45 570.09 C 429.36 574.13 430.34 574.96 433.60 571.92 C 437.22 568.54 439.44 563.84 442.56 552.92 C 446.22 540.13 448.97 535.05 455.21 529.60 C 460.18 525.25 460.55 525.09 461.41 526.99 C 463.06 530.68 460.35 536.38 453.36 543.93 C 445.90 551.99 443.26 557.49 445.61 560.11 C 446.87 561.51 446.85 561.88 445.49 563.01 C 444.63 563.72 441.06 567.98 437.55 572.47 C 429.22 583.15 417.82 593.65 409.93 597.92 L 403.62 601.35 L 405.67 598.42 Z M 288.00 596.97 C 286.69 596.09 286.71 595.84 288.20 594.96 C 297.92 589.22 303.88 575.25 299.83 567.69 C 298.61 565.40 298.08 560.00 299.08 560.00 C 299.39 560.00 300.60 561.01 301.76 562.25 C 311.43 572.57 304.25 598.07 291.70 597.98 C 290.49 597.98 288.83 597.52 288.00 596.97 Z M 329.23 596.67 C 321.97 592.63 317.47 576.73 320.99 567.50 C 322.09 564.61 325.74 560.00 326.92 560.00 C 327.92 560.00 327.39 565.40 326.17 567.69 C 322.12 575.25 328.08 589.22 337.80 594.96 C 339.29 595.84 339.31 596.09 338.00 596.97 C 335.96 598.33 331.98 598.20 329.23 596.67 Z M 191.55 584.06 C 188.33 582.96 187.14 582.16 188.14 581.77 C 189.63 581.20 198.00 584.33 198.00 585.45 C 198.00 586.18 197.36 586.04 191.55 584.06 Z M 428.00 585.53 C 428.00 584.43 434.11 582.01 436.70 582.07 C 438.91 582.13 438.33 582.54 434.00 584.04 C 427.69 586.22 428.00 586.15 428.00 585.53 Z M 184.00 580.23 C 184.00 579.14 184.72 577.65 185.60 576.92 C 186.92 575.82 187.62 575.84 189.77 577.05 C 193.32 579.05 193.52 580.49 190.25 580.57 C 188.74 580.61 186.71 581.00 185.75 581.43 C 184.41 582.03 184.00 581.75 184.00 580.23 Z M 210.04 579.25 C 209.33 577.74 208.53 573.51 208.25 569.87 C 207.82 564.19 208.12 562.41 210.34 557.56 C 211.77 554.45 213.85 550.73 214.97 549.31 C 216.94 546.80 217.00 546.79 217.00 548.93 C 217.00 550.14 215.76 553.68 214.25 556.81 C 211.83 561.82 211.50 563.66 211.50 572.25 C 211.50 577.61 211.46 582.00 211.41 582.00 C 211.36 582.00 210.74 580.76 210.04 579.25 Z M 414.50 572.19 C 414.50 563.66 414.17 561.82 411.75 556.81 C 410.24 553.68 409.00 550.14 409.00 548.93 C 409.00 546.79 409.06 546.80 411.03 549.31 C 412.15 550.73 414.23 554.45 415.66 557.56 C 417.87 562.39 418.18 564.22 417.78 569.89 C 417.51 573.55 416.67 577.75 415.90 579.22 C 414.61 581.67 414.50 581.10 414.50 572.19 Z M 438.67 580.87 C 437.66 580.29 435.95 580.04 434.86 580.33 C 432.11 581.05 433.02 578.86 436.23 577.05 C 438.38 575.84 439.08 575.82 440.40 576.92 C 442.01 578.25 442.64 582.03 441.25 581.97 C 440.84 581.95 439.68 581.46 438.67 580.87 Z M 254.05 576.56 C 253.39 575.76 251.47 574.98 249.78 574.81 C 247.75 574.60 246.46 573.79 245.95 572.41 C 245.28 570.58 245.49 570.37 247.64 570.78 C 248.99 571.04 251.39 572.55 252.97 574.13 C 256.51 577.66 260.26 577.83 263.48 574.61 C 269.61 568.48 267.09 559.32 258.00 554.72 C 251.71 551.53 248.62 549.00 251.04 549.01 C 256.99 549.03 266.00 555.37 266.00 559.53 C 266.00 560.34 266.46 561.00 267.02 561.00 C 267.62 561.00 267.77 559.88 267.38 558.25 C 266.52 554.63 265.12 551.97 264.22 552.23 C 263.82 552.35 262.25 551.61 260.72 550.59 C 259.15 549.54 255.08 548.44 251.33 548.05 C 246.14 547.51 244.31 546.87 242.86 545.07 C 240.81 542.54 240.59 541.19 241.91 539.12 C 242.60 538.02 242.92 538.16 243.43 539.78 C 244.25 542.38 247.15 544.25 253.69 546.41 C 256.55 547.35 260.04 549.03 261.44 550.13 C 262.85 551.24 264.00 551.70 264.00 551.15 C 264.00 549.71 258.30 546.50 252.21 544.53 C 249.00 543.49 246.30 541.86 245.33 540.38 C 243.22 537.17 244.01 536.60 248.13 538.36 C 249.98 539.15 253.37 540.57 255.66 541.51 C 263.88 544.89 269.00 552.76 269.00 562.00 C 269.00 568.24 267.11 572.98 263.49 575.83 C 260.32 578.32 255.80 578.67 254.05 576.56 Z M 362.51 575.83 C 354.62 569.62 355.26 553.65 363.73 545.70 C 366.65 542.96 380.82 536.49 381.78 537.45 C 383.20 538.87 378.55 542.98 373.79 544.52 C 368.19 546.32 362.02 549.91 362.01 551.37 C 362.00 551.85 362.79 551.63 363.75 550.87 C 365.33 549.63 365.37 549.67 364.14 551.24 C 363.39 552.20 362.40 552.75 361.94 552.46 C 360.97 551.86 359.56 554.32 358.62 558.25 C 358.23 559.88 358.38 561.00 358.98 561.00 C 359.54 561.00 360.00 560.34 360.00 559.53 C 360.00 555.37 369.01 549.03 374.96 549.01 C 377.38 549.00 374.29 551.53 368.00 554.72 C 358.91 559.32 356.39 568.48 362.52 574.61 C 365.74 577.83 369.49 577.66 373.03 574.13 C 376.58 570.58 380.97 569.39 380.24 572.18 C 379.98 573.19 378.58 574.27 377.13 574.58 C 375.68 574.88 373.31 575.78 371.85 576.57 C 368.17 578.55 365.73 578.36 362.51 575.83 Z M 255.44 574.50 C 253.90 573.31 253.85 573.12 255.21 573.59 C 257.51 574.39 262.00 569.79 262.00 566.64 C 262.00 565.29 260.38 562.25 258.40 559.88 C 254.64 555.38 255.22 553.60 259.52 556.42 C 263.27 558.88 265.27 562.64 265.27 567.22 C 265.27 570.48 264.70 571.86 262.58 573.68 C 259.43 576.39 258.09 576.55 255.44 574.50 Z M 363.42 573.68 C 358.60 569.54 360.20 560.53 366.48 556.42 C 370.78 553.60 371.36 555.38 367.60 559.88 C 365.40 562.52 364.00 565.25 364.00 566.92 C 364.00 570.35 368.16 574.51 370.70 573.62 C 372.28 573.07 372.26 573.18 370.56 574.50 C 367.91 576.55 366.57 576.39 363.42 573.68 Z M 168.08 572.60 C 167.41 571.79 167.01 569.64 167.18 567.82 C 167.61 563.39 171.51 561.35 176.45 562.98 C 181.06 564.51 182.98 566.80 179.17 566.24 C 176.33 565.82 174.64 567.11 172.54 571.28 C 171.19 573.96 169.60 574.43 168.08 572.60 Z M 454.20 572.80 C 453.54 572.14 453.00 571.08 453.00 570.46 C 453.00 568.06 449.16 565.74 446.29 566.40 L 443.50 567.03 L 445.88 565.00 C 451.27 560.40 458.25 561.92 458.82 567.82 C 459.11 570.86 457.72 574.00 456.08 574.00 C 455.70 574.00 454.86 573.46 454.20 572.80 Z M 173.89 570.75 C 175.16 567.30 180.92 567.14 184.63 570.45 L 187.50 573.01 L 184.50 571.51 C 180.72 569.62 178.89 569.62 176.44 571.47 C 173.69 573.55 172.94 573.34 173.89 570.75 Z M 440.41 571.10 C 444.32 566.78 451.16 566.67 452.27 570.92 C 452.91 573.35 452.23 573.49 449.56 571.47 C 447.10 569.61 445.24 569.62 441.56 571.55 C 438.66 573.06 438.64 573.05 440.41 571.10 Z M 189.97 566.74 C 186.40 560.38 180.84 541.38 180.40 534.00 C 179.82 524.40 177.16 514.52 173.96 510.10 C 170.65 505.54 165.30 503.23 162.05 504.97 C 160.33 505.89 160.00 505.78 160.00 504.24 C 160.00 501.39 162.05 500.00 166.25 500.00 C 173.37 500.00 179.32 505.03 181.97 513.29 C 182.63 515.37 183.32 523.71 183.50 531.83 C 183.83 547.29 185.64 555.50 191.09 566.17 C 193.86 571.60 192.96 572.05 189.97 566.74 Z M 433.03 570.71 C 433.01 570.28 433.89 568.17 434.98 566.04 C 436.07 563.90 438.15 558.63 439.60 554.33 C 441.88 547.54 442.28 544.45 442.62 531.00 C 442.99 516.52 443.20 515.14 445.76 510.00 C 449.10 503.30 453.61 500.00 459.45 500.00 C 463.91 500.00 466.00 501.34 466.00 504.18 C 466.00 505.68 465.63 505.79 463.67 504.89 C 460.23 503.33 454.70 505.98 451.61 510.67 C 448.43 515.50 446.09 524.41 445.93 532.36 C 445.86 535.74 444.97 540.97 443.97 544.00 C 442.96 547.03 441.21 552.65 440.09 556.50 C 438.33 562.53 433.12 573.01 433.03 570.71 Z M 188.01 555.81 C 186.23 550.74 185.65 546.11 185.04 532.30 C 184.34 516.39 184.07 514.67 181.54 509.50 C 177.96 502.17 172.59 498.42 166.07 498.70 C 159.50 498.98 157.03 498.24 156.09 495.72 C 154.74 492.10 155.67 491.21 159.80 492.14 C 161.83 492.60 165.60 493.23 168.17 493.54 C 174.41 494.29 180.11 498.53 183.09 504.66 C 185.59 509.79 185.66 510.34 186.92 536.00 C 187.47 547.07 188.28 553.95 189.38 556.91 C 190.28 559.33 190.84 561.49 190.62 561.71 C 190.40 561.93 189.23 559.27 188.01 555.81 Z M 435.00 561.63 C 435.00 561.42 435.74 559.28 436.64 556.88 C 437.72 553.98 438.55 547.09 439.09 536.50 C 439.53 527.70 440.04 518.03 440.21 515.00 C 440.87 503.66 448.24 494.69 457.83 493.54 C 460.40 493.23 464.19 492.60 466.25 492.13 C 469.90 491.30 470.00 491.35 470.00 494.10 C 470.00 497.79 467.69 498.95 460.84 498.70 C 453.34 498.43 448.23 501.79 444.46 509.50 C 441.93 514.67 441.66 516.39 440.96 532.30 C 440.35 546.06 439.76 550.75 438.01 555.75 C 436.16 561.01 435.00 563.28 435.00 561.63 Z M 153.02 558.71 C 151.65 558.02 150.11 556.26 149.60 554.81 C 147.57 549.04 154.75 544.37 161.51 547.05 C 164.57 548.27 164.48 548.39 159.76 549.43 C 155.90 550.28 153.66 553.98 154.95 557.37 C 155.50 558.81 155.85 559.99 155.73 559.99 C 155.60 559.98 154.38 559.41 153.02 558.71 Z M 172.42 556.85 C 170.17 555.20 166.53 553.61 164.33 553.32 C 160.82 552.85 160.05 553.12 158.16 555.52 L 156.00 558.27 L 156.00 555.79 C 156.00 550.81 161.41 548.50 165.82 551.59 C 167.07 552.46 168.63 552.99 169.30 552.77 C 169.96 552.54 172.01 554.07 173.87 556.18 C 177.85 560.71 177.75 560.75 172.42 556.85 Z M 171.92 552.05 C 167.80 547.50 162.81 543.12 160.49 541.99 C 154.97 539.32 148.69 539.34 146.87 542.03 C 145.59 543.93 145.35 543.96 143.25 542.48 C 142.01 541.60 141.00 539.88 141.00 538.64 C 141.00 530.68 155.88 533.32 166.58 543.18 C 171.80 547.99 180.48 558.85 179.72 559.61 C 179.45 559.88 175.94 556.48 171.92 552.05 Z M 446.03 559.67 C 445.98 558.23 454.56 547.66 459.42 543.18 C 467.52 535.72 480.17 531.57 483.80 535.20 C 485.70 537.10 485.20 540.75 482.82 542.41 C 480.83 543.81 480.53 543.77 479.27 541.97 C 477.55 539.52 471.55 539.32 466.25 541.54 C 464.14 542.42 459.02 546.82 454.31 551.79 C 449.77 556.58 446.05 560.13 446.03 559.67 Z M 452.00 556.33 C 453.92 554.14 456.04 552.54 456.70 552.77 C 457.37 552.99 458.93 552.46 460.18 551.59 C 464.67 548.44 470.00 550.82 470.00 555.96 C 470.00 558.24 469.97 558.23 467.84 555.52 C 465.95 553.12 465.18 552.85 461.67 553.32 C 459.46 553.61 455.60 555.31 453.08 557.08 L 448.50 560.31 L 452.00 556.33 Z M 471.07 557.32 C 472.34 553.98 470.07 550.27 466.24 549.43 C 461.52 548.39 461.43 548.27 464.50 547.03 C 468.77 545.30 474.03 546.78 475.97 550.25 C 477.33 552.70 477.34 553.29 476.00 555.65 C 475.17 557.10 473.51 558.65 472.29 559.10 C 470.25 559.84 470.16 559.71 471.07 557.32 Z M 174.81 550.19 C 166.40 539.36 156.16 532.88 147.24 532.75 C 143.65 532.69 142.29 533.16 140.84 534.95 C 138.27 538.12 138.53 539.76 142.11 543.10 L 145.21 546.00 L 142.33 546.00 C 138.42 546.00 135.29 543.61 134.50 540.02 C 133.44 535.18 134.65 533.00 138.40 533.00 C 140.19 533.00 143.87 531.86 146.58 530.47 C 152.93 527.20 156.66 527.79 161.35 532.78 C 171.30 543.39 176.99 550.08 178.44 552.88 C 179.33 554.60 179.89 556.00 179.69 556.00 C 179.49 556.00 177.29 553.38 174.81 550.19 Z M 447.55 553.13 C 449.00 550.12 454.29 543.83 464.65 532.78 C 469.34 527.79 473.07 527.20 479.42 530.47 C 482.13 531.86 485.81 533.00 487.60 533.00 C 491.35 533.00 492.56 535.18 491.50 540.02 C 490.71 543.61 487.58 546.00 483.67 546.00 L 480.79 546.00 L 483.89 543.10 C 487.47 539.76 487.73 538.12 485.16 534.95 C 482.64 531.84 475.88 531.99 468.58 535.34 C 463.25 537.78 454.51 545.53 448.67 553.00 L 445.94 556.50 L 447.55 553.13 Z M 366.00 549.11 C 366.83 548.52 369.75 547.28 372.50 546.36 C 378.87 544.24 381.75 542.35 382.57 539.78 C 383.08 538.16 383.40 538.02 384.09 539.12 C 385.41 541.19 385.19 542.54 383.14 545.07 C 381.71 546.84 379.83 547.53 374.89 548.07 C 371.38 548.46 367.60 549.09 366.50 549.48 C 364.89 550.05 364.79 549.98 366.00 549.11 Z M 301.50 548.33 C 270.56 545.77 243.41 536.29 217.90 519.13 C 150.37 473.72 117.09 386.14 134.63 300.00 C 142.66 260.56 163.52 221.29 190.38 195.03 C 194.02 191.47 197.00 188.22 197.00 187.81 C 197.00 187.39 194.91 188.17 192.35 189.53 C 184.94 193.47 175.50 192.70 168.07 187.55 C 159.38 181.53 157.70 169.95 164.99 166.32 C 168.05 164.79 168.96 165.93 168.98 171.30 C 169.02 179.08 174.31 185.04 181.85 185.76 C 184.55 186.02 187.60 185.74 188.63 185.15 C 190.22 184.22 189.96 184.06 186.83 184.03 C 181.90 183.99 177.00 179.94 177.00 175.91 C 177.00 172.55 180.09 169.00 183.00 169.00 C 184.62 169.00 185.00 169.67 185.00 172.55 C 185.00 180.01 193.01 183.52 198.69 178.55 L 201.50 176.09 L 198.00 176.58 C 193.81 177.17 189.99 175.36 188.32 172.01 C 186.59 168.54 187.43 168.35 191.03 171.38 C 195.16 174.85 198.21 174.72 201.38 170.95 C 205.02 166.64 206.28 161.22 205.00 155.48 C 201.75 141.01 189.37 129.35 175.00 127.22 L 169.50 126.41 L 175.00 123.22 C 178.02 121.47 183.88 118.84 188.00 117.39 C 206.21 110.97 214.13 106.17 216.98 99.80 C 218.57 96.25 218.88 96.02 220.30 97.44 C 222.85 99.99 223.27 99.29 222.56 93.67 C 222.07 89.69 222.25 88.04 223.29 87.18 C 225.56 85.29 229.45 90.21 229.45 94.98 C 229.45 99.93 227.28 102.32 218.94 106.53 C 215.34 108.34 211.74 110.62 210.94 111.58 C 209.61 113.20 209.73 113.28 212.50 112.60 C 222.98 110.03 230.76 104.31 234.95 96.10 C 236.03 93.98 237.67 91.96 238.59 91.61 C 240.05 91.04 240.20 91.60 239.77 96.03 L 239.28 101.10 L 242.16 98.35 C 243.74 96.83 245.52 93.79 246.11 91.58 L 247.20 87.56 L 248.67 91.03 C 250.70 95.81 249.06 100.94 243.84 106.16 C 236.97 113.03 232.66 114.34 216.50 114.51 C 205.19 114.63 201.73 115.01 198.50 116.51 L 194.50 118.36 L 204.00 119.06 C 209.23 119.45 215.52 120.31 218.00 120.99 C 223.52 122.49 234.09 127.21 237.77 129.83 C 239.27 130.90 242.41 132.35 244.75 133.05 C 249.67 134.52 251.41 133.97 259.63 128.34 C 262.56 126.33 265.67 124.97 266.87 125.16 L 268.98 125.50 L 266.60 130.61 C 263.34 137.62 260.70 138.49 248.59 136.54 C 237.45 134.74 231.20 132.63 219.34 126.67 C 208.86 121.41 200.36 119.59 192.23 120.87 C 189.33 121.33 186.78 121.89 186.56 122.10 C 186.34 122.32 191.19 122.50 197.33 122.50 C 204.61 122.50 209.20 122.94 210.50 123.76 C 212.28 124.89 212.17 124.94 209.50 124.26 C 204.41 122.97 187.82 123.43 183.50 124.99 L 179.50 126.43 L 184.45 127.04 C 187.18 127.37 194.35 127.28 200.39 126.84 C 206.44 126.41 211.59 126.26 211.85 126.51 C 212.10 126.77 210.22 127.90 207.67 129.03 C 203.85 130.72 202.35 130.91 199.26 130.09 C 197.19 129.55 193.93 129.45 192.00 129.86 L 188.50 130.62 L 192.79 131.33 C 195.86 131.84 198.40 133.25 201.70 136.27 C 204.23 138.60 206.09 139.82 205.83 139.00 C 205.56 138.18 203.49 136.08 201.23 134.35 L 197.11 131.21 L 201.01 131.73 C 204.05 132.14 205.90 131.66 209.49 129.56 C 212.01 128.08 214.85 127.03 215.79 127.23 C 217.18 127.53 216.88 128.19 214.14 130.80 C 211.46 133.36 211.16 133.99 212.64 133.96 C 213.66 133.95 215.62 133.29 217.00 132.50 C 219.81 130.90 225.00 130.51 225.00 131.91 C 225.00 132.41 223.62 133.99 221.92 135.41 C 218.39 138.38 213.60 138.81 210.22 136.44 C 208.16 135.00 208.00 135.02 208.00 136.79 C 208.00 139.44 211.12 141.98 215.18 142.64 C 217.66 143.04 220.89 142.29 226.95 139.90 C 231.54 138.08 234.85 136.45 234.30 136.27 C 233.76 136.09 229.83 137.33 225.58 139.03 C 217.76 142.16 213.38 142.36 211.15 139.69 C 210.41 138.79 211.22 138.58 214.37 138.83 C 217.44 139.08 219.89 138.47 223.44 136.58 C 228.38 133.96 230.72 133.55 234.75 134.63 C 237.72 135.43 237.60 136.25 233.90 140.47 C 231.92 142.72 229.11 144.50 226.15 145.38 L 221.50 146.76 L 225.24 147.49 C 230.76 148.57 233.40 147.50 236.37 143.02 C 237.83 140.81 239.36 139.00 239.76 139.00 C 240.17 139.00 240.48 141.09 240.46 143.65 C 240.43 147.66 240.09 148.42 237.96 149.22 C 231.37 151.70 220.33 149.54 215.27 144.78 C 214.02 143.61 212.75 142.92 212.44 143.23 C 211.51 144.16 218.29 148.84 222.94 150.48 C 228.39 152.40 231.32 152.39 237.90 150.44 C 242.18 149.17 243.03 148.56 242.45 147.19 C 239.98 141.32 241.29 138.00 246.10 138.00 C 248.08 138.00 249.48 138.81 250.67 140.62 C 252.30 143.11 252.29 143.41 250.44 146.87 C 247.43 152.49 241.25 155.21 232.50 154.77 C 223.85 154.33 219.59 152.35 211.66 145.07 C 207.02 140.81 206.13 140.27 207.88 142.78 C 209.14 144.58 211.77 147.28 213.71 148.78 C 220.09 153.69 221.83 155.47 222.49 157.75 C 223.00 159.53 222.73 160.00 221.20 160.00 C 218.02 160.00 214.11 156.15 210.97 149.94 C 207.24 142.55 202.41 137.00 199.71 137.00 C 197.73 137.00 197.75 137.13 200.24 139.75 C 209.84 149.84 211.61 167.37 204.14 178.45 C 199.71 185.03 199.52 185.41 201.10 184.48 C 201.87 184.03 204.52 182.01 207.00 179.99 C 226.27 164.28 254.37 151.09 279.33 146.03 C 358.84 129.94 436.35 171.31 474.49 250.20 C 483.97 269.82 489.77 288.65 493.67 312.50 C 496.19 327.92 496.16 363.05 493.62 378.50 C 488.26 411.00 477.61 439.26 461.21 464.50 C 442.98 492.54 414.51 518.11 386.68 531.43 C 359.83 544.28 328.24 550.55 301.50 548.33 Z M 342.78 531.14 C 415.56 515.45 469.98 451.46 480.05 369.74 C 481.83 355.30 480.79 321.51 478.14 307.48 C 463.83 231.71 410.70 173.87 342.60 159.91 C 329.71 157.26 309.47 156.38 296.47 157.89 C 234.83 165.08 181.90 208.90 157.50 272.99 C 143.10 310.78 140.67 356.86 150.92 397.32 C 168.56 466.88 220.76 519.29 284.50 531.42 C 297.08 533.82 297.53 533.85 316.00 533.49 C 328.67 533.24 336.06 532.59 342.78 531.14 Z M 193.73 128.40 C 193.40 128.06 192.53 128.03 191.81 128.32 C 191.01 128.64 191.25 128.87 192.42 128.92 C 193.47 128.96 194.06 128.73 193.73 128.40 Z M 173.79 530.75 C 168.74 525.65 168.61 525.23 172.80 527.40 C 176.34 529.23 179.26 532.51 178.84 534.18 C 178.63 534.99 176.68 533.66 173.79 530.75 Z M 447.00 534.13 C 447.00 533.15 448.01 531.43 449.25 530.30 C 451.61 528.15 456.02 525.60 456.39 526.17 C 456.51 526.35 454.45 528.62 451.80 531.21 C 448.29 534.65 447.00 535.44 447.00 534.13 Z M 125.46 529.63 C 115.76 525.12 110.63 516.12 110.55 503.50 C 110.51 496.57 110.86 494.89 113.19 490.93 C 117.69 483.28 127.66 477.88 136.88 478.12 L 141.50 478.23 L 136.22 479.11 C 126.51 480.73 117.83 486.61 113.91 494.21 C 110.18 501.46 112.13 513.96 117.26 515.58 C 118.52 515.98 118.90 516.75 118.47 518.08 C 117.94 519.75 118.38 520.00 121.79 520.00 C 124.30 520.00 127.01 519.12 129.28 517.58 C 132.25 515.57 132.94 515.41 133.42 516.66 C 135.14 521.14 131.97 526.97 128.54 525.65 C 127.69 525.33 127.00 525.45 127.00 525.92 C 127.00 526.39 128.62 527.08 130.59 527.45 C 136.75 528.61 142.69 524.85 147.55 516.74 C 149.78 513.01 152.33 509.24 153.22 508.35 C 154.72 506.85 154.93 507.03 155.90 510.64 C 158.00 518.42 154.05 525.67 145.58 529.62 C 138.91 532.72 132.10 532.72 125.46 529.63 Z M 480.42 529.62 C 471.95 525.67 467.97 518.32 470.10 510.59 C 471.08 507.04 471.29 506.87 472.78 508.35 C 473.67 509.24 476.22 513.01 478.45 516.74 C 481.71 522.17 483.43 523.96 487.24 525.85 C 491.27 527.85 492.55 528.05 495.74 527.20 C 497.96 526.62 498.64 526.16 497.40 526.10 C 493.39 525.91 490.90 521.04 492.58 516.66 C 493.06 515.41 493.75 515.57 496.72 517.58 C 498.99 519.12 501.70 520.00 504.21 520.00 C 507.62 520.00 508.06 519.75 507.53 518.08 C 507.10 516.75 507.48 515.98 508.74 515.58 C 513.87 513.96 515.82 501.46 512.09 494.21 C 508.17 486.61 499.49 480.73 489.78 479.11 C 484.57 478.24 484.55 478.23 488.59 478.12 C 494.03 477.96 501.28 480.23 506.16 483.61 C 521.18 494.02 518.21 520.55 501.06 529.25 C 494.10 532.78 487.47 532.90 480.42 529.62 Z M 133.80 524.80 C 134.46 524.14 135.00 522.62 135.00 521.42 C 135.00 519.65 135.90 519.01 139.74 518.04 C 142.34 517.39 145.04 516.38 145.74 515.80 C 146.62 515.07 147.00 515.08 147.00 515.86 C 147.00 516.47 145.05 519.00 142.67 521.48 C 139.51 524.79 137.57 526.00 135.47 526.00 C 133.24 526.00 132.87 525.73 133.80 524.80 Z M 483.33 521.48 C 480.95 519.00 479.00 516.47 479.00 515.86 C 479.00 515.08 479.38 515.07 480.26 515.80 C 480.96 516.38 483.66 517.39 486.26 518.04 C 490.10 519.01 491.00 519.65 491.00 521.42 C 491.00 522.62 491.54 524.14 492.20 524.80 C 493.13 525.73 492.76 526.00 490.53 526.00 C 488.43 526.00 486.49 524.79 483.33 521.48 Z M 120.46 517.12 C 120.91 515.69 120.45 515.08 118.55 514.60 C 112.76 513.15 111.27 502.86 115.60 494.18 C 118.64 488.08 123.97 483.98 131.96 481.60 C 139.32 479.42 142.80 479.70 136.20 481.95 C 131.22 483.64 128.15 485.75 123.75 490.50 C 116.94 497.84 117.72 511.43 125.22 515.99 C 128.09 517.73 128.09 517.74 125.80 518.36 C 121.44 519.52 119.82 519.15 120.46 517.12 Z M 499.50 518.08 C 497.57 517.32 497.58 517.27 499.79 516.57 C 501.05 516.17 503.24 514.08 504.66 511.94 C 506.89 508.57 507.18 507.22 506.81 502.11 C 506.15 492.92 499.70 485.32 489.67 481.90 C 483.17 479.69 486.76 479.44 494.04 481.60 C 505.58 485.03 513.00 493.78 513.00 503.95 C 512.99 509.47 509.97 515.00 506.95 515.00 C 505.32 515.00 505.00 515.44 505.50 517.00 C 506.01 518.62 505.69 518.99 503.82 518.93 C 502.54 518.89 500.60 518.51 499.50 518.08 Z M 104.02 497.75 C 104.06 495.33 107.77 488.33 110.90 484.77 C 117.39 477.37 130.16 471.56 139.64 471.68 C 144.97 471.75 157.08 475.43 160.13 477.91 C 162.49 479.83 162.49 479.83 157.00 478.40 C 149.14 476.36 133.19 476.44 126.84 478.55 C 121.23 480.42 114.69 486.26 109.26 494.25 C 106.14 498.86 103.98 500.30 104.02 497.75 Z M 179.18 497.78 C 178.53 497.13 178.00 496.12 178.00 495.54 C 178.00 493.83 174.07 486.97 170.65 482.70 C 168.92 480.53 164.80 476.86 161.50 474.53 C 151.88 467.73 130.72 455.72 128.00 455.51 C 126.62 455.40 120.55 454.08 114.50 452.58 C 85.86 445.46 67.00 429.09 67.00 411.37 C 67.00 406.13 70.12 402.03 72.57 404.06 C 73.36 404.71 74.00 406.06 74.00 407.06 C 74.00 411.79 79.29 408.79 80.28 403.50 C 80.48 402.40 80.45 404.24 80.21 407.58 C 79.91 411.57 80.35 415.68 81.47 419.53 C 82.91 424.49 84.28 426.50 90.34 432.52 C 96.23 438.39 99.45 440.60 108.50 445.00 C 114.55 447.95 121.20 451.47 123.27 452.82 C 125.34 454.18 127.28 455.06 127.57 454.77 C 127.85 454.48 126.16 453.10 123.80 451.71 C 121.43 450.31 118.07 447.67 116.33 445.84 C 112.68 442.00 104.76 426.99 106.41 427.02 C 108.33 427.06 111.69 430.37 114.50 435.00 C 116.00 437.48 118.87 441.23 120.87 443.35 C 124.70 447.41 135.85 455.49 136.59 454.74 C 136.83 454.50 134.53 452.65 131.48 450.62 C 123.88 445.57 118.55 440.03 115.48 433.96 C 110.92 424.96 111.18 414.97 116.00 413.71 C 117.74 413.26 118.02 413.47 117.43 414.82 C 117.02 415.75 116.49 419.48 116.24 423.12 C 115.88 428.38 116.22 430.72 117.91 434.52 C 119.07 437.15 120.25 439.08 120.53 438.80 C 120.81 438.53 120.14 436.32 119.04 433.90 C 114.93 424.83 118.00 411.41 125.20 407.02 C 129.32 404.51 129.71 404.51 130.52 407.07 C 131.50 410.15 130.52 412.89 125.89 420.04 C 120.76 427.97 119.92 432.99 122.81 438.57 C 124.77 442.38 133.00 451.26 133.00 449.57 C 133.00 449.11 134.01 450.02 135.25 451.59 C 136.49 453.16 137.50 454.91 137.50 455.48 C 137.50 456.04 138.56 456.65 139.87 456.83 C 142.15 457.16 142.17 457.09 140.62 454.86 C 137.71 450.71 139.41 440.00 142.98 440.00 C 144.69 440.00 146.14 447.00 145.53 452.24 C 144.67 459.53 146.55 462.11 158.60 470.19 C 169.40 477.44 174.31 482.93 178.52 492.46 C 181.12 498.34 181.32 499.92 179.18 497.78 Z M 122.95 440.91 C 122.34 439.77 121.59 439.08 121.28 439.39 C 120.97 439.70 121.28 440.64 121.98 441.48 C 123.78 443.64 124.26 443.36 122.95 440.91 Z M 445.00 498.65 C 445.00 498.32 446.13 495.50 447.52 492.36 C 451.69 482.93 456.63 477.42 467.40 470.19 C 479.45 462.11 481.33 459.53 480.47 452.24 C 479.86 447.00 481.31 440.00 483.02 440.00 C 486.59 440.00 488.29 450.71 485.38 454.86 C 483.83 457.09 483.85 457.16 486.13 456.83 C 487.44 456.65 488.50 456.04 488.50 455.48 C 488.50 454.91 489.51 453.16 490.75 451.59 C 491.99 450.02 493.00 449.11 493.00 449.57 C 493.00 451.26 501.23 442.38 503.19 438.57 C 506.12 432.90 505.25 427.62 500.12 419.94 C 495.54 413.08 494.49 410.18 495.48 407.07 C 496.29 404.51 496.68 404.51 500.80 407.02 C 508.00 411.41 511.07 424.83 506.96 433.90 C 505.86 436.32 505.19 438.53 505.47 438.80 C 505.75 439.08 506.93 437.15 508.09 434.52 C 509.78 430.72 510.12 428.38 509.76 423.12 C 509.51 419.48 508.96 415.71 508.55 414.75 C 507.48 412.31 509.52 412.52 512.13 415.13 C 513.95 416.95 514.18 418.07 513.74 422.94 C 512.78 433.46 506.31 442.79 494.52 450.62 C 491.47 452.65 489.17 454.50 489.41 454.74 C 490.15 455.49 501.30 447.41 505.13 443.35 C 507.13 441.23 510.00 437.48 511.50 435.00 C 514.31 430.37 517.67 427.06 519.60 427.02 C 521.15 426.99 513.08 442.40 509.65 446.02 C 508.08 447.68 504.80 450.21 502.35 451.64 C 499.91 453.07 498.15 454.48 498.43 454.77 C 498.72 455.06 500.66 454.18 502.73 452.82 C 504.80 451.47 511.23 448.04 517.00 445.20 C 538.45 434.69 546.93 423.66 545.60 408.00 C 545.30 404.42 545.49 400.83 546.02 400.00 C 546.72 398.93 546.82 399.40 546.40 401.63 C 545.99 403.75 546.36 405.62 547.54 407.42 C 549.57 410.52 551.21 410.34 552.01 406.93 C 552.78 403.66 556.47 403.14 558.04 406.08 C 559.76 409.28 558.75 417.82 555.98 423.55 C 551.58 432.64 538.48 443.40 526.15 448.07 C 519.56 450.56 502.85 455.01 498.50 455.43 C 495.29 455.74 470.63 469.78 462.76 475.78 C 455.98 480.95 448.00 491.67 448.00 495.61 C 448.00 496.24 447.33 497.32 446.50 498.00 C 445.67 498.68 445.00 498.98 445.00 498.65 Z M 504.77 439.44 C 504.44 439.10 503.62 439.88 502.96 441.16 C 501.82 443.40 501.85 443.42 503.57 441.77 C 504.57 440.82 505.11 439.77 504.77 439.44 Z M 516.74 494.25 C 511.28 486.21 504.78 480.42 499.07 478.52 C 492.65 476.39 476.94 476.32 469.00 478.40 C 463.52 479.83 463.51 479.83 465.87 477.91 C 468.92 475.43 481.03 471.75 486.36 471.68 C 499.57 471.51 514.88 480.92 520.11 492.43 C 523.71 500.37 521.64 501.49 516.74 494.25 Z M 102.02 492.75 C 102.06 489.00 105.48 482.67 109.26 479.34 C 113.25 475.84 121.83 472.29 128.26 471.49 L 132.50 470.96 L 128.50 472.32 C 117.78 475.94 107.46 484.32 104.86 491.50 C 103.43 495.47 101.99 496.10 102.02 492.75 Z M 173.09 491.25 C 169.82 484.97 159.84 475.33 155.14 473.93 C 152.52 473.14 150.05 471.45 148.43 469.32 L 145.87 465.97 L 153.69 470.69 C 157.98 473.28 163.98 477.90 167.00 480.95 C 172.55 486.55 178.01 495.00 176.08 495.00 C 175.51 495.00 174.16 493.31 173.09 491.25 Z M 451.19 490.75 C 454.62 484.44 463.49 476.02 472.31 470.69 L 480.13 465.97 L 477.57 469.32 C 475.95 471.45 473.48 473.14 470.86 473.93 C 466.16 475.33 456.18 484.97 452.91 491.25 C 451.84 493.31 450.49 495.00 449.92 495.00 C 449.34 495.00 449.91 493.09 451.19 490.75 Z M 521.13 491.15 C 516.77 482.79 508.15 475.92 497.50 472.32 L 493.50 470.96 L 497.74 471.49 C 504.41 472.32 512.91 475.93 517.07 479.68 C 521.03 483.26 524.48 490.42 523.79 493.64 C 523.49 495.05 522.84 494.44 521.13 491.15 Z M 169.88 492.25 C 169.82 491.84 169.81 491.19 169.86 490.81 C 170.06 489.46 164.69 485.99 160.79 484.94 C 156.15 483.70 152.79 484.29 145.41 487.67 C 140.30 490.01 136.00 490.14 136.00 487.96 C 136.00 486.39 141.74 484.00 145.70 483.92 L 149.50 483.84 L 146.33 482.45 C 140.63 479.95 141.42 479.00 149.19 479.02 C 159.32 479.05 164.66 481.62 170.41 489.25 C 172.64 492.21 172.90 493.00 171.62 493.00 C 170.73 493.00 169.95 492.66 169.88 492.25 Z M 455.50 489.36 C 461.35 481.61 466.63 479.05 476.81 479.02 C 484.58 479.00 485.37 479.95 479.67 482.45 L 476.50 483.84 L 480.30 483.92 C 484.26 484.00 490.00 486.39 490.00 487.96 C 490.00 490.30 485.62 489.90 478.91 486.96 C 473.03 484.38 470.96 483.93 467.44 484.46 C 462.59 485.18 456.50 488.84 456.50 491.03 C 456.50 491.82 455.62 492.64 454.55 492.85 C 452.84 493.18 452.96 492.74 455.50 489.36 Z M 163.83 489.44 C 161.01 488.41 158.66 488.34 153.57 489.13 C 145.41 490.40 143.57 489.91 148.23 487.69 C 153.06 485.40 160.18 485.54 165.04 488.02 C 171.06 491.09 170.43 491.83 163.83 489.44 Z M 457.00 490.63 C 457.00 490.30 458.78 489.13 460.96 488.02 C 465.82 485.54 472.94 485.40 477.77 487.69 C 482.42 489.90 480.60 490.41 472.52 489.15 C 466.54 488.22 463.68 488.50 458.75 490.50 C 457.79 490.89 457.00 490.95 457.00 490.63 Z M 98.00 477.75 C 98.28 477.47 100.25 476.05 102.39 474.62 C 105.62 472.44 105.91 472.00 104.09 472.00 C 102.89 472.00 100.54 472.70 98.88 473.56 C 97.22 474.42 94.66 474.98 93.18 474.81 L 90.50 474.50 L 92.61 472.39 C 94.45 470.55 95.70 470.32 102.61 470.55 C 106.95 470.70 108.93 470.64 107.00 470.41 C 97.98 469.34 91.15 467.59 86.53 465.18 C 81.96 462.78 81.74 462.51 84.10 462.22 C 85.53 462.04 89.02 462.78 91.85 463.85 C 94.68 464.93 97.00 465.65 97.00 465.45 C 97.00 465.26 93.96 463.13 90.25 460.72 C 81.87 455.30 77.88 449.82 77.21 442.84 L 76.72 437.71 L 81.61 441.05 C 87.39 445.00 88.25 445.97 91.59 452.34 C 96.48 461.66 105.95 468.85 115.25 470.29 C 120.14 471.05 119.94 470.01 114.70 467.43 C 112.39 466.30 109.83 464.16 109.00 462.68 C 107.67 460.30 107.67 459.70 109.00 457.33 C 111.05 453.67 112.87 453.23 112.24 456.53 C 111.12 462.37 116.28 466.61 125.61 467.53 C 137.92 468.73 139.16 469.32 130.99 470.05 C 125.96 470.50 121.01 471.78 115.99 473.92 C 109.70 476.60 96.38 479.44 98.00 477.75 Z M 517.00 476.55 C 503.36 471.26 499.00 470.03 493.50 469.95 C 486.46 469.84 488.61 468.20 496.00 468.05 C 507.21 467.81 514.48 463.39 513.78 457.25 C 513.57 455.46 513.69 454.00 514.05 454.00 C 515.47 454.00 518.00 457.80 518.00 459.93 C 518.00 462.56 512.86 467.75 509.38 468.62 C 505.78 469.52 506.53 471.03 510.25 470.39 C 520.31 468.64 527.67 463.37 533.28 453.89 C 538.30 445.41 538.71 444.93 544.39 441.05 L 549.28 437.71 L 548.79 442.84 C 548.12 449.82 544.13 455.30 535.75 460.72 C 532.04 463.13 529.00 465.26 529.00 465.45 C 529.00 465.65 531.32 464.93 534.15 463.85 C 536.98 462.78 540.47 462.04 541.90 462.22 C 544.26 462.51 544.04 462.78 539.47 465.18 C 534.82 467.61 527.63 469.44 519.00 470.38 C 517.08 470.59 519.26 470.72 523.86 470.67 C 531.06 470.60 532.42 470.85 533.66 472.54 C 534.97 474.32 534.91 474.53 532.91 474.84 C 531.70 475.02 529.02 474.41 526.95 473.48 C 521.41 470.98 519.86 472.15 524.52 475.32 L 528.46 478.00 L 524.48 477.96 C 522.29 477.93 518.92 477.30 517.00 476.55 Z M 145.50 471.28 C 144.40 471.01 141.63 469.94 139.34 468.91 C 137.05 467.88 131.87 466.74 127.84 466.38 C 117.42 465.45 112.93 462.70 113.04 457.32 C 113.07 455.79 113.43 455.92 115.29 458.11 C 119.07 462.57 122.31 463.96 131.08 464.85 C 139.49 465.70 144.47 467.45 146.95 470.43 C 147.66 471.30 148.08 471.95 147.87 471.88 C 147.67 471.82 146.60 471.55 145.50 471.28 Z M 479.17 470.30 C 481.43 467.56 488.26 465.05 493.50 465.02 C 500.96 464.98 505.59 463.32 509.50 459.30 C 512.08 456.64 513.00 456.15 513.00 457.41 C 513.00 462.74 508.50 465.46 498.11 466.38 C 494.04 466.74 489.31 467.71 487.59 468.52 C 485.88 469.34 482.98 470.43 481.15 470.96 C 478.16 471.82 477.96 471.75 479.17 470.30 Z M 140.91 465.42 C 139.48 464.66 134.98 463.75 130.91 463.38 C 126.83 463.02 122.27 462.10 120.76 461.34 C 118.01 459.96 114.31 455.36 115.21 454.46 C 116.07 453.60 133.39 459.06 137.50 461.48 C 145.03 465.94 147.70 469.01 140.91 465.42 Z M 482.50 465.39 C 487.37 461.63 493.13 458.94 501.40 456.55 C 506.30 455.13 510.53 454.19 510.79 454.46 C 511.69 455.36 507.99 459.95 505.24 461.35 C 503.73 462.12 499.07 463.06 494.89 463.45 C 490.70 463.83 486.04 464.79 484.52 465.57 C 480.94 467.43 479.97 467.34 482.50 465.39 Z M 128.90 443.34 C 127.56 441.18 126.45 437.47 126.19 434.29 C 125.75 428.96 125.79 428.86 130.50 424.35 C 135.91 419.16 136.96 419.59 136.98 427.02 C 137.00 430.31 136.26 432.62 134.28 435.52 C 132.52 438.09 131.56 440.82 131.55 443.25 C 131.55 445.31 131.46 447.00 131.35 447.00 C 131.25 447.00 130.14 445.35 128.90 443.34 Z M 494.43 443.30 C 494.42 440.84 493.44 438.04 491.65 435.36 C 489.41 432.01 488.94 430.32 489.19 426.44 C 489.37 423.69 490.04 421.48 490.78 421.24 C 491.48 421.01 493.84 422.60 496.03 424.79 C 499.38 428.15 500.00 429.41 500.00 432.91 C 500.00 437.12 498.35 442.01 495.83 445.30 C 494.59 446.93 494.45 446.73 494.43 443.30 Z M 101.03 412.72 C 98.51 411.44 94.00 405.59 94.00 403.60 C 94.01 403.00 94.83 403.85 95.84 405.50 C 98.58 409.98 100.62 411.27 104.95 411.27 C 111.98 411.27 119.20 405.75 122.75 397.64 C 124.67 393.25 124.28 393.20 120.82 397.40 C 118.21 400.57 112.86 404.00 110.53 404.00 C 108.66 404.00 110.91 400.89 117.00 395.07 C 123.42 388.92 124.00 388.03 124.00 384.29 C 124.00 382.05 123.11 378.26 122.02 375.86 L 120.04 371.50 L 120.02 374.80 C 119.99 379.31 117.55 383.66 114.03 385.48 C 108.19 388.50 107.65 387.29 111.98 380.90 C 117.14 373.29 115.50 367.75 107.02 364.10 C 103.62 362.64 100.03 362.00 95.21 362.00 C 87.43 362.00 83.27 363.16 77.61 366.92 C 75.47 368.34 72.27 370.26 70.50 371.19 C 65.70 373.71 62.21 378.44 60.44 384.82 C 58.33 392.40 57.88 393.29 58.59 388.53 C 60.33 376.75 65.50 368.34 77.98 356.95 C 86.37 349.30 87.65 347.64 91.50 339.39 C 95.46 330.92 99.18 326.38 101.16 327.60 C 102.52 328.44 102.12 336.87 100.59 339.80 C 98.88 343.05 94.35 347.34 87.25 352.41 C 84.36 354.48 82.00 356.28 82.00 356.42 C 82.00 357.77 88.99 355.47 95.18 352.09 C 99.40 349.79 105.03 347.56 107.69 347.14 C 113.22 346.26 119.87 347.53 118.24 349.16 C 116.93 350.47 110.26 350.75 107.00 349.62 L 104.50 348.76 L 107.36 351.80 C 111.41 356.10 110.48 356.98 103.69 355.27 C 98.08 353.86 97.65 353.90 90.88 356.41 C 87.03 357.83 84.16 358.55 84.50 358.00 C 85.61 356.20 83.35 356.95 81.50 359.00 C 80.50 360.10 79.26 361.00 78.73 361.00 C 78.21 361.00 78.84 360.11 80.14 359.03 C 81.44 357.95 82.01 357.05 81.40 357.03 C 80.15 357.00 68.98 368.42 69.04 369.68 C 69.07 370.13 71.09 368.26 73.54 365.53 C 76.00 362.79 78.00 361.05 78.00 361.66 C 78.00 362.31 80.57 361.71 84.25 360.19 C 92.65 356.73 103.37 356.60 110.14 359.87 C 121.39 365.32 127.95 374.55 128.78 386.14 C 129.07 390.16 128.75 394.83 128.00 397.50 C 126.51 402.82 120.48 410.07 115.63 412.37 C 111.56 414.30 104.49 414.47 101.03 412.72 Z M 510.45 412.59 C 505.99 410.65 499.47 402.74 498.00 397.50 C 497.25 394.83 496.93 390.16 497.22 386.14 C 498.05 374.57 504.65 365.28 515.92 359.78 C 522.57 356.54 533.32 356.71 541.75 360.19 C 545.43 361.71 548.00 362.31 548.00 361.66 C 548.00 361.05 550.00 362.79 552.46 365.53 C 554.91 368.26 556.93 370.13 556.96 369.68 C 557.02 368.50 545.90 357.00 544.69 357.00 C 544.14 357.00 544.54 358.01 545.59 359.25 L 547.49 361.50 L 544.93 359.25 C 542.29 356.93 540.41 356.24 541.50 358.00 C 541.84 358.55 538.97 357.83 535.12 356.41 C 528.35 353.90 527.92 353.86 522.31 355.27 C 515.55 356.97 514.58 356.09 518.60 351.90 L 521.41 348.96 L 518.20 350.08 C 514.76 351.28 508.02 350.27 507.69 348.50 C 507.58 347.94 510.36 347.37 514.01 347.21 C 520.12 346.94 521.11 347.23 530.32 351.96 C 540.78 357.33 541.50 357.61 540.44 355.90 C 539.96 355.13 540.39 355.14 541.88 355.94 C 545.63 357.94 544.15 356.28 538.75 352.41 C 531.65 347.34 527.12 343.05 525.41 339.80 C 523.77 336.65 523.52 328.41 525.05 327.47 C 526.86 326.35 532.40 333.43 534.92 340.10 C 537.04 345.70 538.78 347.93 548.95 358.00 C 561.05 369.99 565.65 376.98 566.60 384.85 L 567.04 388.50 L 565.62 384.22 C 562.85 375.91 558.84 372.27 544.50 365.03 C 530.85 358.14 511.00 363.13 511.00 373.44 C 511.00 375.25 511.89 377.86 512.98 379.25 C 515.81 382.85 517.29 387.00 515.73 386.99 C 513.72 386.98 508.73 383.30 507.35 380.81 C 506.65 379.54 506.05 376.92 506.01 375.00 L 505.96 371.50 L 503.98 375.86 C 502.89 378.26 502.00 382.05 502.00 384.29 C 502.00 388.03 502.58 388.92 509.00 395.07 C 512.85 398.75 516.00 402.24 516.00 402.81 C 516.00 405.09 509.36 401.91 505.75 397.90 C 501.71 393.42 501.34 393.39 503.22 397.70 C 506.72 405.76 514.03 411.27 521.21 411.27 C 525.39 411.27 527.44 409.95 530.16 405.50 C 531.17 403.85 531.99 403.00 532.00 403.60 C 532.00 405.59 527.49 411.44 524.97 412.72 C 521.76 414.34 514.32 414.28 510.45 412.59 Z M 63.66 409.22 C 62.42 406.88 62.11 404.88 62.59 402.22 C 63.35 398.02 65.87 392.54 66.68 393.34 C 66.97 393.63 66.48 394.90 65.60 396.16 C 64.72 397.42 64.02 399.13 64.04 399.97 C 64.07 400.81 64.96 399.84 66.04 397.81 C 68.55 393.05 71.56 391.00 76.05 391.00 C 80.96 391.00 84.01 394.30 83.97 399.56 C 83.94 403.31 83.86 403.40 82.40 401.50 C 81.55 400.40 80.41 399.62 79.86 399.77 C 79.30 399.93 79.12 399.61 79.45 399.07 C 80.20 397.86 76.87 396.00 73.97 396.00 C 71.60 396.00 65.00 401.99 65.00 404.13 C 65.00 404.86 66.34 403.83 67.97 401.85 C 71.67 397.37 74.50 396.50 77.07 399.07 C 79.24 401.24 79.49 403.22 77.96 406.07 C 76.65 408.53 75.00 408.56 75.00 406.12 C 75.00 403.58 72.52 401.70 70.16 402.45 C 68.29 403.04 66.50 406.31 65.76 410.50 C 65.45 412.20 65.14 412.01 63.66 409.22 Z M 560.00 410.05 C 560.00 406.95 557.87 403.09 555.80 402.44 C 553.47 401.70 551.00 403.59 551.00 406.12 C 551.00 408.56 549.35 408.53 548.04 406.07 C 546.51 403.22 546.76 401.24 548.93 399.07 C 551.50 396.50 554.33 397.37 558.03 401.85 C 559.66 403.83 561.00 404.86 561.00 404.13 C 561.00 403.40 559.47 401.27 557.60 399.40 C 553.06 394.86 549.77 394.90 545.37 399.57 L 542.00 403.14 L 542.00 399.71 C 542.00 394.61 545.25 391.00 549.85 391.00 C 554.43 391.00 557.43 393.02 559.96 397.81 C 561.04 399.84 561.93 400.81 561.96 399.97 C 561.98 399.13 561.28 397.42 560.40 396.16 C 559.52 394.90 559.03 393.63 559.32 393.34 C 560.13 392.54 562.65 398.02 563.41 402.22 C 563.87 404.77 563.59 406.90 562.51 408.97 C 560.70 412.49 560.00 412.78 560.00 410.05 Z M 98.45 407.55 C 95.18 404.27 95.31 402.31 98.63 404.93 C 100.08 406.07 102.23 407.00 103.40 407.00 C 105.97 407.00 115.95 403.45 117.38 402.02 C 119.91 399.49 120.06 401.32 117.54 403.95 C 111.47 410.29 102.83 411.92 98.45 407.55 Z M 514.50 408.43 C 511.07 406.65 505.79 401.88 506.49 401.18 C 506.74 400.92 507.60 401.26 508.40 401.92 C 510.38 403.56 519.99 407.00 522.60 407.00 C 523.77 407.00 525.92 406.07 527.37 404.93 C 530.69 402.31 530.82 404.27 527.55 407.55 C 524.64 410.45 519.12 410.83 514.50 408.43 Z M 59.52 401.09 C 58.77 397.70 60.47 387.36 62.68 381.85 C 63.52 379.75 65.74 376.68 67.62 375.03 C 70.92 372.13 75.54 370.21 76.62 371.28 C 77.71 372.37 72.93 379.63 69.03 382.82 C 63.75 387.13 60.77 393.04 60.77 399.19 C 60.77 404.71 60.43 405.23 59.52 401.09 Z M 565.26 399.44 C 565.22 393.02 562.32 387.19 556.97 382.82 C 553.07 379.63 548.29 372.37 549.38 371.28 C 550.46 370.21 555.08 372.13 558.38 375.03 C 560.26 376.68 562.49 379.78 563.35 381.92 C 565.82 388.08 567.34 398.50 566.24 401.71 C 565.38 404.20 565.28 403.95 565.26 399.44 Z M 87.22 394.98 C 82.55 389.40 77.77 388.12 71.65 390.83 C 65.87 393.39 65.60 391.95 71.18 388.26 C 74.77 385.88 76.36 385.50 82.60 385.50 C 88.92 385.50 90.17 385.81 92.47 387.97 C 95.59 390.90 95.61 395.55 92.50 397.59 C 90.70 398.77 90.17 398.51 87.22 394.98 Z M 533.18 397.41 C 529.87 395.09 530.31 390.76 534.20 387.49 C 537.10 385.04 538.00 384.83 544.06 385.17 C 549.24 385.47 551.64 386.16 554.86 388.29 C 560.40 391.96 560.12 393.38 554.35 390.83 C 548.25 388.13 543.53 389.39 538.74 394.99 C 535.54 398.73 535.24 398.86 533.18 397.41 Z M 62.06 396.00 C 62.05 392.75 66.85 385.36 70.76 382.61 C 75.07 379.57 82.50 378.16 87.53 379.42 C 89.71 379.97 89.96 380.34 88.97 381.54 C 88.30 382.34 86.32 383.00 84.56 383.00 C 76.12 383.00 67.15 388.23 63.16 395.50 C 62.40 396.88 62.06 397.03 62.06 396.00 Z M 562.60 395.29 C 560.71 389.41 549.53 383.00 541.18 383.00 C 539.57 383.00 537.70 382.34 537.03 381.54 C 536.04 380.34 536.29 379.97 538.47 379.42 C 543.50 378.16 550.93 379.57 555.27 382.62 C 559.46 385.57 564.59 393.76 563.76 396.19 C 563.48 397.00 563.04 396.66 562.60 395.29 Z M 106.00 395.14 C 106.00 393.88 108.21 392.19 113.15 389.67 C 116.12 388.16 118.14 386.13 119.82 383.00 L 122.22 378.50 L 121.56 382.50 C 120.76 387.29 118.32 390.92 114.40 393.13 C 110.75 395.18 106.00 396.32 106.00 395.14 Z M 514.66 394.54 C 509.56 392.72 506.22 389.45 505.00 385.07 C 503.37 379.19 503.86 378.42 506.30 383.04 C 507.87 386.01 509.98 388.12 512.93 389.68 C 517.99 392.36 520.00 393.90 520.00 395.12 C 520.00 396.27 519.27 396.19 514.66 394.54 Z M 567.08 390.42 C 567.13 389.25 567.36 389.01 567.68 389.81 C 567.97 390.53 567.94 391.40 567.60 391.73 C 567.27 392.06 567.04 391.47 567.08 390.42 Z M 110.50 372.80 C 103.88 366.05 93.67 364.89 83.78 369.79 C 79.74 371.80 78.00 372.26 78.00 371.33 C 78.00 370.60 77.44 369.99 76.75 369.97 C 74.09 369.90 80.52 365.91 85.75 364.39 C 98.92 360.56 115.12 366.03 113.83 373.88 C 113.53 375.69 113.24 375.60 110.50 372.80 Z M 512.00 374.01 C 512.00 370.26 514.02 367.90 519.33 365.43 C 525.44 362.58 533.12 362.25 540.72 364.51 C 545.64 365.97 551.78 369.90 549.25 369.97 C 548.56 369.99 548.00 370.61 548.00 371.35 C 548.00 372.30 546.34 371.85 542.36 369.85 C 532.57 364.91 521.94 366.21 514.93 373.22 C 512.18 375.97 512.00 376.02 512.00 374.01 Z M 62.01 369.75 C 62.03 363.91 64.48 353.32 68.65 341.10 C 72.66 329.32 73.16 326.90 72.80 321.19 C 72.42 315.24 72.09 314.44 68.98 311.84 C 67.11 310.28 64.96 309.00 64.21 309.00 C 62.22 309.00 63.20 305.58 65.31 305.18 C 70.56 304.17 76.78 314.04 75.53 321.40 C 75.14 323.65 74.72 326.40 74.59 327.50 C 74.46 328.60 73.79 330.55 73.10 331.84 C 72.40 333.12 72.09 334.42 72.40 334.73 C 73.43 335.76 79.01 322.44 80.50 315.41 C 82.38 306.54 82.37 302.58 80.45 298.55 C 78.90 295.26 77.58 294.32 70.75 291.60 C 66.76 290.01 66.00 288.60 68.58 287.61 C 71.43 286.51 74.44 286.97 77.77 289.00 C 81.91 291.53 82.80 291.54 80.53 289.04 C 78.14 286.40 70.67 283.64 67.53 284.24 C 66.14 284.50 65.00 284.30 65.00 283.78 C 65.00 282.33 70.68 277.00 72.23 277.00 C 72.99 277.00 75.16 278.61 77.05 280.59 C 78.95 282.56 82.13 285.02 84.12 286.04 C 86.12 287.07 88.02 288.94 88.36 290.20 C 91.08 300.35 85.83 319.51 75.52 337.10 C 72.06 343.00 70.60 347.45 73.46 343.36 C 76.01 339.72 85.72 319.66 86.95 315.50 C 90.08 304.86 91.06 303.20 96.70 298.93 L 102.30 294.71 L 101.76 300.68 C 101.06 308.38 98.53 313.20 90.45 322.19 C 84.37 328.97 79.30 336.64 80.27 337.61 C 80.50 337.84 82.87 335.20 85.54 331.76 C 88.21 328.32 96.34 319.41 103.62 311.96 C 116.53 298.75 118.84 295.32 117.71 290.98 C 117.12 288.76 118.91 288.31 120.80 290.20 C 122.95 292.35 122.17 298.34 119.11 303.16 C 116.24 307.70 114.59 309.22 99.58 321.14 C 89.59 329.08 80.29 340.78 74.26 353.00 C 70.09 361.45 63.51 372.00 62.41 372.00 C 62.18 372.00 62.00 370.99 62.01 369.75 Z M 559.99 367.46 C 558.07 364.73 554.36 358.21 551.74 352.96 C 545.60 340.65 536.36 329.04 526.42 321.14 C 511.41 309.22 509.76 307.70 506.89 303.16 C 503.83 298.34 503.05 292.35 505.20 290.20 C 507.09 288.31 508.88 288.76 508.29 290.98 C 507.16 295.32 509.47 298.75 522.38 311.96 C 529.66 319.41 537.79 328.32 540.46 331.76 C 543.13 335.20 545.50 337.84 545.73 337.61 C 546.72 336.61 541.66 328.93 535.60 322.23 C 527.51 313.29 524.94 308.40 524.24 300.68 L 523.70 294.71 L 529.30 298.93 C 534.94 303.19 535.87 304.77 539.07 315.50 C 540.87 321.54 553.98 347.32 554.00 344.86 C 554.00 344.50 551.08 338.43 547.51 331.36 C 540.61 317.69 536.99 306.05 537.01 297.59 C 537.03 290.08 537.86 288.11 541.88 286.04 C 543.87 285.02 547.05 282.56 548.95 280.59 C 550.84 278.61 553.01 277.00 553.77 277.00 C 555.32 277.00 561.00 282.33 561.00 283.78 C 561.00 284.30 559.86 284.50 558.47 284.24 C 555.33 283.64 547.86 286.40 545.47 289.04 C 543.18 291.56 544.76 291.54 548.00 289.00 C 550.50 287.05 554.44 286.46 557.42 287.61 C 560.00 288.60 559.24 290.01 555.25 291.60 C 548.42 294.32 547.10 295.26 545.55 298.55 C 543.63 302.58 543.62 306.54 545.50 315.41 C 546.99 322.44 552.57 335.76 553.60 334.73 C 553.91 334.42 553.75 333.35 553.25 332.34 C 552.74 331.33 551.73 327.91 551.01 324.75 C 549.93 320.10 549.92 318.21 550.93 314.84 C 552.50 309.59 557.17 304.74 560.23 305.18 C 562.65 305.52 564.06 309.00 561.79 309.00 C 561.04 309.00 558.89 310.28 557.02 311.84 C 553.91 314.44 553.58 315.24 553.22 321.09 C 552.88 326.65 553.43 329.28 557.37 341.00 C 561.69 353.84 564.54 366.96 563.82 370.70 C 563.58 371.93 562.50 371.02 559.99 367.46 Z M 75.07 354.00 C 79.32 345.33 84.27 337.96 90.24 331.43 C 95.70 325.45 107.80 315.47 108.61 316.27 C 109.44 317.11 102.91 324.03 98.90 326.57 C 96.87 327.85 94.15 330.67 92.85 332.83 C 88.71 339.78 79.62 352.29 75.69 356.46 L 71.89 360.50 L 75.07 354.00 Z M 549.87 356.19 C 546.09 351.91 536.73 338.84 533.15 332.83 C 531.85 330.67 529.13 327.85 527.10 326.57 C 523.09 324.03 516.56 317.11 517.39 316.27 C 518.14 315.52 529.80 325.00 535.08 330.66 C 537.56 333.32 541.43 338.20 543.66 341.50 C 547.60 347.32 554.44 360.00 553.63 360.00 C 553.41 360.00 551.72 358.28 549.87 356.19 Z M 85.00 355.59 C 85.00 355.36 88.04 353.02 91.75 350.38 C 101.50 343.46 108.84 336.23 109.86 332.56 C 110.38 330.65 110.32 327.14 109.70 323.71 C 108.40 316.54 110.11 314.00 116.23 314.00 C 122.07 314.00 126.00 318.24 126.00 324.52 C 126.00 327.09 125.27 330.74 124.37 332.63 C 122.43 336.72 115.07 343.43 110.95 344.87 C 107.04 346.23 107.23 345.64 111.53 342.98 C 116.84 339.70 120.00 334.44 120.00 328.90 C 120.00 321.67 114.84 316.56 111.20 320.20 C 109.10 322.30 109.91 323.39 112.09 321.41 C 114.16 319.54 114.22 319.55 116.59 322.32 C 121.14 327.59 119.07 335.83 111.84 341.28 C 109.02 343.40 86.33 356.00 85.33 356.00 C 85.15 356.00 85.00 355.81 85.00 355.59 Z M 528.00 349.39 C 515.55 342.78 511.49 339.85 508.92 335.63 C 504.50 328.39 508.82 316.81 514.14 321.63 C 516.16 323.46 516.76 322.16 514.80 320.20 C 511.16 316.56 506.00 321.67 506.00 328.90 C 506.00 334.44 509.16 339.70 514.47 342.98 C 516.41 344.18 518.00 345.33 518.00 345.53 C 518.00 346.70 511.60 343.35 508.08 340.33 C 502.78 335.80 500.00 330.34 500.00 324.46 C 500.00 320.69 500.54 319.31 502.92 316.92 C 506.57 313.28 512.64 312.84 515.52 316.02 C 517.15 317.83 517.23 318.68 516.22 324.08 C 515.45 328.24 515.41 330.97 516.11 332.81 C 517.49 336.49 523.14 342.15 531.50 348.25 C 543.62 357.09 542.93 357.32 528.00 349.39 Z M 62.65 349.22 C 62.30 347.00 61.69 344.35 61.31 343.34 C 60.69 341.68 60.80 341.64 62.42 342.96 C 64.02 344.26 64.37 344.21 65.61 342.52 C 67.37 340.11 67.35 340.28 65.13 347.38 L 63.30 353.27 L 62.65 349.22 Z M 561.29 348.80 C 560.65 346.43 559.82 343.60 559.43 342.50 C 558.74 340.52 558.75 340.52 560.26 342.46 C 561.56 344.13 562.02 344.22 563.39 343.09 C 564.28 342.36 564.98 341.92 564.96 342.13 C 564.93 342.33 564.36 344.88 563.68 347.80 L 562.44 353.09 L 561.29 348.80 Z M 67.50 334.82 C 67.50 330.91 66.91 328.67 65.26 326.36 L 63.03 323.23 L 65.17 322.66 C 66.36 322.36 68.20 322.57 69.28 323.15 C 70.91 324.02 71.16 324.96 70.76 328.85 C 70.50 331.41 69.65 334.99 68.89 336.82 L 67.50 340.14 L 67.50 334.82 Z M 556.59 335.32 C 553.51 326.27 555.21 321.20 560.83 322.66 L 562.97 323.23 L 560.74 326.36 C 559.10 328.65 558.50 330.92 558.50 334.75 C 558.50 337.64 558.43 340.00 558.34 340.00 C 558.26 340.00 557.47 337.89 556.59 335.32 Z M 77.04 319.00 C 76.93 314.43 73.83 307.69 70.89 305.63 C 67.87 303.52 63.36 303.54 62.17 305.66 C 61.35 307.13 61.16 307.07 60.54 305.11 C 59.56 302.05 62.23 298.33 65.98 297.50 C 69.92 296.64 74.72 299.36 77.43 304.00 C 79.62 307.75 79.98 315.63 78.17 320.00 C 77.16 322.41 77.12 322.38 77.04 319.00 Z M 547.18 317.15 C 544.52 305.27 552.38 294.53 561.27 297.91 C 564.48 299.13 566.33 302.37 565.44 305.20 C 564.84 307.09 564.66 307.14 563.83 305.66 C 563.32 304.75 561.68 304.00 560.17 304.00 C 554.63 304.00 550.41 309.29 549.08 317.90 L 548.38 322.50 L 547.18 317.15 Z M 114.06 311.20 C 117.48 308.47 121.83 302.08 122.96 298.13 C 124.72 291.99 120.66 286.02 115.76 287.58 C 113.65 288.25 113.64 288.20 115.29 285.68 C 116.89 283.24 116.89 283.03 115.24 282.08 C 113.84 281.26 114.24 281.05 117.30 281.03 C 121.86 280.99 126.00 284.55 126.00 288.51 C 126.00 289.95 126.39 290.88 126.87 290.58 C 128.36 289.66 126.89 285.16 124.23 282.50 C 120.83 279.10 117.75 278.48 113.88 280.41 C 109.54 282.58 109.14 281.71 112.80 278.04 C 116.76 274.09 121.56 273.92 125.92 277.59 C 127.62 279.01 129.00 281.01 129.00 282.03 C 129.00 283.05 129.52 284.20 130.15 284.59 C 131.72 285.56 130.39 277.25 128.53 274.40 C 126.27 270.96 121.81 269.66 115.79 270.69 C 112.88 271.19 109.40 271.34 108.06 271.02 L 105.63 270.44 L 108.45 268.22 C 110.92 266.27 111.02 266.00 109.27 266.00 C 108.17 266.00 106.08 266.93 104.63 268.07 C 101.29 270.70 101.23 269.07 104.52 265.16 C 107.53 261.58 113.27 260.27 118.46 261.99 C 122.88 263.45 129.75 271.17 130.59 275.62 C 131.41 280.01 132.76 280.80 133.61 277.41 C 134.74 272.91 131.49 264.87 126.00 258.59 C 123.25 255.45 121.00 252.03 121.00 251.00 C 121.00 249.14 125.51 243.03 126.16 244.00 C 128.27 247.14 134.18 260.58 135.09 264.28 C 136.70 270.90 135.74 283.27 133.06 290.24 C 129.23 300.23 120.38 310.57 114.00 312.49 L 111.50 313.25 L 114.06 311.20 Z M 509.50 311.43 C 505.21 309.20 502.38 306.32 497.93 299.65 C 490.97 289.23 488.17 274.48 491.07 263.50 C 491.89 260.37 498.07 246.63 499.84 244.00 C 500.49 243.03 505.00 249.14 505.00 251.00 C 505.00 252.03 502.75 255.45 500.00 258.59 C 494.51 264.87 491.26 272.91 492.39 277.41 C 493.24 280.80 494.59 280.01 495.41 275.62 C 496.30 270.87 503.21 263.32 507.97 261.89 C 513.38 260.27 518.37 261.46 521.44 265.11 C 524.09 268.27 524.87 270.66 522.83 269.39 C 522.04 268.91 521.87 269.22 522.30 270.34 C 522.65 271.26 522.45 272.00 521.85 272.00 C 521.26 272.00 521.00 271.09 521.29 269.99 C 521.84 267.88 519.59 266.00 516.51 266.00 C 515.32 266.00 515.64 266.69 517.69 268.57 L 520.50 271.15 L 511.99 270.59 C 501.56 269.90 497.76 271.60 496.07 277.70 C 494.73 282.50 494.71 285.30 496.00 284.50 C 496.55 284.16 497.00 283.05 497.00 282.03 C 497.00 281.01 498.38 279.01 500.08 277.59 C 504.44 273.92 509.24 274.09 513.20 278.04 C 516.83 281.68 516.47 282.58 512.23 280.47 C 508.48 278.60 504.96 279.31 501.65 282.62 C 499.09 285.18 497.67 289.68 499.13 290.58 C 499.61 290.88 500.00 289.95 500.00 288.51 C 500.00 284.55 504.14 280.99 508.70 281.03 C 511.76 281.05 512.16 281.26 510.76 282.08 C 509.11 283.03 509.11 283.24 510.71 285.68 C 512.36 288.20 512.35 288.25 510.24 287.58 C 505.34 286.02 501.28 291.99 503.04 298.13 C 504.16 302.05 508.53 308.49 511.82 311.08 C 514.77 313.40 513.62 313.57 509.50 311.43 Z M 86.50 285.79 C 77.58 282.68 71.62 273.21 71.58 262.09 C 71.57 258.47 72.17 253.73 72.92 251.57 L 74.27 247.64 L 76.15 251.30 C 79.19 257.22 84.55 259.05 91.25 256.46 C 93.89 255.44 93.61 261.39 90.88 264.12 C 89.18 265.82 87.97 266.13 84.68 265.68 L 80.60 265.14 L 83.80 267.64 C 87.27 270.36 88.20 273.36 85.25 272.32 C 81.68 271.07 77.93 266.45 76.31 261.30 C 74.30 254.92 72.99 254.39 73.73 260.25 C 74.87 269.35 80.14 276.74 87.46 279.54 C 92.51 281.46 97.38 280.46 100.63 276.84 L 102.50 274.75 L 99.00 276.87 C 91.30 281.54 82.18 278.05 77.27 268.55 C 75.78 265.66 75.84 265.69 79.17 269.21 C 82.70 272.96 88.09 275.22 88.76 273.23 C 89.00 272.50 90.27 272.63 92.68 273.64 C 96.55 275.26 101.67 275.22 103.92 273.55 C 105.10 272.68 105.22 273.08 104.65 275.95 C 103.68 280.85 101.37 283.95 97.45 285.58 C 93.55 287.22 90.73 287.27 86.50 285.79 Z M 528.33 285.59 C 524.59 283.91 522.29 280.72 521.35 275.95 L 520.68 272.50 L 524.01 275.73 C 528.93 280.50 533.13 281.61 538.54 279.54 C 545.80 276.77 551.03 269.41 552.24 260.25 C 553.03 254.38 551.70 254.93 549.69 261.30 C 548.07 266.45 544.32 271.07 540.75 272.32 C 537.80 273.36 538.73 270.36 542.20 267.64 L 545.40 265.14 L 541.45 265.65 C 538.34 266.06 537.02 265.72 535.25 264.04 C 532.41 261.36 532.01 255.40 534.75 256.46 C 541.45 259.05 546.81 257.22 549.85 251.30 L 551.73 247.64 L 553.08 251.57 C 558.37 266.96 549.58 284.95 536.00 286.51 C 533.18 286.84 530.31 286.49 528.33 285.59 Z M 527.50 277.26 L 524.50 275.61 L 528.70 274.86 C 531.02 274.46 533.79 273.65 534.87 273.07 C 536.29 272.31 536.95 272.34 537.22 273.17 C 537.91 275.22 543.23 273.03 546.83 269.21 C 550.22 265.62 550.25 265.61 548.70 268.61 C 547.84 270.28 545.30 273.30 543.06 275.33 C 539.69 278.37 538.26 278.99 534.75 278.96 C 532.41 278.94 529.15 278.17 527.50 277.26 Z M 132.08 276.71 C 131.86 271.74 126.34 264.67 120.30 261.62 C 112.05 257.45 101.14 262.15 100.93 269.97 L 100.86 272.50 L 99.78 270.24 C 98.26 267.10 100.09 263.47 104.48 260.88 C 107.34 259.19 107.80 258.49 107.01 257.01 C 105.79 254.74 107.96 252.67 110.54 253.65 C 111.77 254.12 112.10 253.97 111.61 253.17 C 110.46 251.32 113.89 251.77 118.72 254.11 C 121.16 255.29 124.60 258.22 126.56 260.78 C 130.04 265.34 133.59 274.95 132.66 277.27 C 132.37 277.97 132.12 277.72 132.08 276.71 Z M 493.02 276.43 C 493.01 275.84 493.67 273.10 494.49 270.33 C 496.49 263.60 501.93 256.69 507.28 254.11 C 512.11 251.77 515.54 251.32 514.39 253.17 C 513.90 253.97 514.23 254.12 515.46 253.65 C 518.06 252.66 520.21 254.74 518.97 257.05 C 518.17 258.54 518.49 259.13 520.66 260.19 C 524.91 262.28 527.40 266.32 526.48 269.66 L 525.71 272.50 L 524.98 269.26 C 523.69 263.50 518.97 260.00 512.51 260.00 C 505.43 260.00 498.70 265.02 495.08 273.00 C 493.96 275.48 493.03 277.02 493.02 276.43 Z M 136.00 262.44 C 135.30 260.27 133.21 255.47 131.36 251.77 C 127.66 244.37 127.03 241.26 129.94 244.75 C 130.98 245.99 132.14 247.00 132.53 247.00 C 132.92 247.00 132.70 246.34 132.04 245.54 C 131.37 244.74 131.10 243.65 131.43 243.11 C 131.77 242.57 130.69 240.01 129.05 237.42 C 124.73 230.60 121.59 220.54 121.64 213.66 C 121.67 209.38 121.43 208.28 120.72 209.54 C 119.78 211.21 120.20 219.38 121.43 223.50 C 121.76 224.60 121.37 224.15 120.56 222.50 C 118.68 218.66 118.54 209.62 120.34 208.13 C 121.08 207.52 121.91 207.24 122.18 207.51 C 122.46 207.79 123.50 207.11 124.49 206.01 C 128.33 201.77 129.21 204.71 126.00 211.00 C 123.92 215.08 123.38 219.50 124.85 220.41 C 125.32 220.70 126.23 219.17 126.88 217.01 C 128.04 213.14 129.59 211.26 130.70 212.37 C 131.02 212.68 130.26 215.28 129.03 218.15 C 127.05 222.76 126.93 223.82 127.99 227.43 C 128.65 229.67 130.88 233.75 132.93 236.50 C 138.42 243.83 139.22 245.75 138.84 250.56 C 138.61 253.40 138.83 254.57 139.47 253.93 C 140.01 253.39 140.76 248.79 141.14 243.72 C 142.30 228.10 147.47 218.03 156.14 214.56 C 158.40 213.66 159.99 212.66 159.68 212.34 C 159.36 212.03 157.02 212.78 154.46 214.02 C 149.74 216.31 144.45 222.35 143.35 226.73 C 142.49 230.15 140.45 228.85 140.76 225.09 C 141.38 217.47 149.18 207.37 157.77 203.08 C 163.26 200.33 171.48 198.76 176.25 199.55 C 182.06 200.52 179.85 201.69 171.27 202.21 C 165.57 202.55 162.16 203.36 158.48 205.24 C 153.62 207.72 144.00 216.84 144.00 218.96 C 144.00 220.74 144.76 220.13 146.93 216.61 C 152.53 207.56 167.00 208.21 167.00 217.51 C 167.00 219.37 166.48 221.20 165.85 221.59 C 164.36 222.52 162.00 219.28 162.00 216.31 C 162.00 215.04 161.60 214.00 161.11 214.00 C 160.02 214.00 159.00 216.47 159.00 219.08 C 159.00 220.66 158.28 221.00 154.95 221.00 C 152.03 221.00 150.25 221.66 148.53 223.38 C 145.93 225.98 143.19 233.93 142.46 241.00 C 142.00 245.49 142.00 245.49 143.41 240.03 C 145.28 232.74 150.22 228.00 155.93 228.00 C 161.82 228.00 161.69 229.54 155.54 232.35 C 149.39 235.17 146.70 238.67 145.12 245.92 C 144.57 248.44 143.62 252.77 143.01 255.55 C 142.40 258.32 140.86 261.90 139.59 263.49 L 137.28 266.38 L 136.00 262.44 Z M 486.05 263.07 C 484.89 261.45 483.06 255.98 481.98 250.91 C 479.39 238.78 477.77 236.15 470.75 232.63 C 464.39 229.44 464.16 228.00 470.02 228.00 C 472.93 228.00 474.80 228.76 477.33 230.99 C 480.44 233.72 481.69 236.52 483.35 244.50 C 483.66 245.97 483.80 245.80 483.88 243.83 C 484.03 240.54 481.26 229.46 479.39 225.81 C 477.61 222.33 476.43 221.66 471.03 221.03 C 466.90 220.54 466.56 220.28 466.53 217.59 C 466.52 215.99 465.94 214.49 465.25 214.25 C 464.48 214.00 464.00 214.75 464.00 216.23 C 464.00 219.26 461.66 222.53 460.15 221.59 C 459.52 221.20 459.00 219.37 459.00 217.51 C 459.00 208.21 473.47 207.56 479.07 216.61 C 481.24 220.13 482.00 220.74 482.00 218.96 C 482.00 216.84 472.38 207.72 467.52 205.24 C 463.84 203.36 460.43 202.55 454.73 202.21 C 446.09 201.69 444.00 200.57 449.91 199.63 C 454.83 198.84 462.74 200.33 468.23 203.08 C 476.82 207.37 484.62 217.47 485.24 225.09 C 485.55 228.85 483.51 230.15 482.65 226.73 C 481.51 222.18 475.99 215.88 471.35 213.83 C 468.87 212.73 466.59 212.08 466.29 212.37 C 465.99 212.67 467.60 213.66 469.86 214.56 C 478.53 218.03 483.70 228.10 484.86 243.72 C 485.24 248.79 485.99 253.39 486.53 253.93 C 487.17 254.57 487.39 253.40 487.16 250.56 C 486.78 245.75 487.58 243.83 493.07 236.50 C 495.12 233.75 497.35 229.67 498.01 227.43 C 499.07 223.82 498.95 222.76 496.97 218.15 C 495.74 215.28 494.98 212.68 495.30 212.37 C 496.41 211.26 497.96 213.14 499.12 217.01 C 499.77 219.17 500.68 220.70 501.15 220.41 C 502.62 219.50 502.08 215.08 500.00 211.00 C 496.68 204.48 497.80 201.72 501.96 206.19 C 503.08 207.39 504.00 208.01 504.00 207.57 C 504.00 207.12 504.67 207.32 505.50 208.00 C 507.46 209.62 507.42 218.46 505.44 222.50 C 504.63 224.15 504.24 224.60 504.57 223.50 C 505.80 219.38 506.22 211.21 505.28 209.54 C 504.57 208.28 504.33 209.38 504.36 213.66 C 504.41 220.54 501.27 230.60 496.95 237.42 C 495.31 240.01 494.23 242.57 494.57 243.11 C 494.90 243.65 494.63 244.74 493.96 245.54 C 493.30 246.34 493.08 247.00 493.47 247.00 C 493.86 247.00 495.02 245.99 496.06 244.75 C 499.06 241.15 498.31 244.22 494.00 253.12 C 491.80 257.67 490.00 262.18 490.00 263.14 C 490.00 266.16 488.23 266.13 486.05 263.07 Z M 79.84 253.25 C 79.04 252.29 77.64 250.32 76.74 248.87 C 75.15 246.31 75.20 246.12 78.56 242.21 C 82.01 238.18 90.80 233.00 94.20 233.00 C 95.19 233.00 96.00 232.59 96.00 232.09 C 96.00 231.60 94.99 231.38 93.75 231.62 C 91.73 232.01 91.76 231.94 94.00 230.94 C 95.47 230.28 99.80 230.00 104.50 230.25 C 111.55 230.63 114.14 231.33 121.42 234.84 C 123.55 235.86 114.03 226.98 108.50 222.78 C 100.60 216.78 98.11 213.99 96.50 209.34 C 94.84 204.57 96.33 203.81 101.32 206.89 C 106.01 209.79 121.83 230.65 122.43 234.72 C 122.53 235.42 123.91 237.34 125.49 238.99 C 127.52 241.11 127.92 242.00 126.84 242.00 C 126.00 242.00 124.45 241.05 123.40 239.89 C 118.54 234.52 107.50 231.34 99.49 233.00 C 89.72 235.03 81.26 243.88 83.79 249.43 C 84.43 250.84 85.70 252.00 86.60 252.00 C 87.95 252.00 88.02 252.27 87.00 253.50 C 85.32 255.52 81.64 255.40 79.84 253.25 Z M 539.04 253.55 C 537.97 252.26 538.03 252.00 539.40 252.00 C 540.30 252.00 541.57 250.84 542.21 249.43 C 544.74 243.88 536.28 235.03 526.51 233.00 C 518.50 231.34 507.46 234.52 502.60 239.89 C 501.55 241.05 500.00 242.00 499.16 242.00 C 498.08 242.00 498.48 241.11 500.51 238.99 C 502.09 237.34 503.47 235.43 503.57 234.74 C 504.19 230.74 520.15 209.69 524.70 206.87 C 529.68 203.80 531.16 204.57 529.49 209.38 C 527.94 213.87 523.39 218.91 517.00 223.24 C 512.98 225.96 502.30 235.94 504.58 234.84 C 512.33 231.11 514.31 230.57 521.50 230.23 C 526.06 230.01 530.58 230.32 532.00 230.95 C 534.24 231.94 534.26 232.01 532.25 231.62 C 528.25 230.85 529.87 232.55 534.25 233.72 C 539.23 235.05 545.88 239.62 548.77 243.68 L 550.81 246.54 L 548.11 250.52 C 545.16 254.88 541.23 256.19 539.04 253.55 Z M 85.03 249.53 C 83.17 247.29 86.63 241.14 91.77 237.56 C 99.71 232.04 113.74 233.11 121.88 239.85 L 125.25 242.66 L 122.67 245.24 C 120.37 247.54 119.95 247.65 118.80 246.25 C 116.65 243.66 109.79 241.05 105.07 241.02 C 99.71 241.00 92.96 244.07 89.59 248.08 C 86.75 251.45 86.65 251.49 85.03 249.53 Z M 536.25 248.03 C 529.69 239.72 515.73 238.74 507.50 246.00 C 505.57 247.70 505.42 247.67 503.21 244.92 L 500.91 242.08 L 504.91 239.18 C 513.50 232.96 526.58 232.24 534.26 237.58 C 539.37 241.15 542.83 247.29 540.97 249.53 C 539.33 251.51 538.87 251.36 536.25 248.03 Z M 496.57 240.50 C 497.61 238.85 499.48 235.51 500.73 233.08 C 501.98 230.64 503.63 227.94 504.40 227.08 C 508.32 222.64 510.49 206.67 507.84 201.68 C 507.20 200.48 505.18 197.52 503.34 195.11 C 500.19 190.96 498.97 187.00 500.85 187.00 C 502.00 187.00 505.00 190.41 505.00 191.72 C 505.00 192.98 507.54 194.13 508.40 193.26 C 509.88 191.78 508.75 188.96 506.02 187.35 C 503.26 185.73 500.00 180.70 500.00 178.10 C 500.00 176.43 502.64 176.78 507.03 179.01 C 514.18 182.66 517.20 192.27 515.06 204.55 C 513.59 213.02 510.04 221.87 505.25 229.00 C 503.22 232.02 501.55 234.74 501.53 235.04 C 501.51 235.33 499.97 237.35 498.09 239.54 C 495.60 242.43 495.19 242.69 496.57 240.50 Z M 125.92 237.42 C 124.59 236.00 123.62 234.65 123.76 234.41 C 123.90 234.18 122.45 231.63 120.54 228.75 C 113.55 218.22 108.96 201.88 110.42 192.75 C 111.45 186.31 114.61 181.24 118.97 179.01 C 123.36 176.78 126.00 176.43 126.00 178.10 C 126.00 180.70 122.74 185.73 119.98 187.35 C 117.25 188.96 116.12 191.78 117.60 193.26 C 118.52 194.19 121.00 192.94 121.00 191.55 C 121.00 190.28 124.12 187.00 125.33 187.00 C 127.08 187.00 125.66 191.16 122.50 195.30 C 117.97 201.23 117.00 203.93 117.00 210.59 C 117.00 215.96 120.07 226.81 121.92 227.95 C 122.81 228.50 129.20 240.00 128.62 240.00 C 128.47 240.00 127.26 238.84 125.92 237.42 Z M 114.84 230.51 C 113.21 228.87 102.90 228.04 96.43 229.02 C 89.46 230.07 84.00 229.26 84.00 227.19 C 84.00 225.88 88.72 224.00 92.02 224.00 C 94.22 224.00 94.79 223.63 94.35 222.48 C 93.87 221.21 94.21 221.13 96.45 221.98 C 97.92 222.54 100.60 223.00 102.39 223.00 C 105.37 223.00 114.07 227.69 115.56 230.09 C 116.15 231.06 115.67 231.34 114.84 230.51 Z M 510.54 229.94 C 511.95 227.66 520.73 223.00 523.61 223.00 C 525.40 223.00 528.08 222.54 529.55 221.98 C 531.79 221.13 532.13 221.21 531.65 222.48 C 531.21 223.63 531.78 224.00 533.98 224.00 C 537.28 224.00 542.00 225.88 542.00 227.19 C 542.00 229.29 536.58 230.02 528.63 228.99 C 522.22 228.15 519.40 228.22 515.29 229.31 C 512.42 230.07 510.28 230.35 510.54 229.94 Z M 135.22 218.29 C 124.00 193.78 124.89 166.85 137.39 153.15 C 139.65 150.67 140.71 148.94 139.74 149.29 C 138.07 149.91 138.07 149.77 139.64 146.72 C 142.99 140.21 146.32 136.98 153.24 133.52 C 161.24 129.51 166.74 129.01 174.32 131.59 C 179.26 133.28 179.74 133.86 177.80 135.80 C 176.91 136.69 176.90 137.00 177.76 137.00 C 178.41 137.00 179.42 136.09 180.02 134.97 C 180.98 133.17 180.68 132.77 177.30 131.43 C 169.68 128.40 169.23 127.94 174.50 128.56 C 186.08 129.91 195.91 137.31 201.22 148.65 C 203.79 154.15 204.17 155.97 203.80 161.10 C 203.43 166.16 202.88 167.58 200.27 170.19 C 198.29 172.17 196.60 173.06 195.57 172.66 C 194.14 172.12 194.18 171.82 195.92 170.08 C 199.06 166.94 200.53 160.70 199.17 156.25 C 195.60 144.53 186.19 138.21 170.00 136.65 L 164.50 136.12 L 170.00 138.96 C 177.78 142.98 180.21 145.86 179.82 150.56 C 179.36 156.02 177.28 156.07 176.47 150.64 C 175.74 145.81 173.26 142.43 169.34 140.94 C 164.73 139.19 164.57 139.99 168.68 144.25 C 170.93 146.59 173.27 149.48 173.88 150.68 C 175.55 153.95 175.23 159.49 173.23 161.97 C 171.45 164.16 171.45 164.16 169.64 162.15 C 168.47 160.86 167.63 157.91 167.28 153.82 C 166.61 146.11 164.90 142.52 160.70 139.96 C 157.10 137.77 156.00 137.54 156.00 139.00 C 156.00 139.55 156.84 140.00 157.86 140.00 C 160.48 140.00 164.64 144.46 165.35 148.01 C 166.03 151.41 164.94 154.97 162.65 156.88 C 160.05 159.04 159.00 157.20 159.00 150.48 C 159.00 145.18 158.62 143.73 156.81 142.04 C 155.61 140.92 153.84 140.00 152.89 140.00 C 151.94 140.00 150.45 139.73 149.58 139.39 C 148.71 139.06 148.00 139.28 148.00 139.89 C 148.00 140.50 149.26 141.00 150.80 141.00 C 153.79 141.00 156.00 142.57 156.00 144.70 C 156.00 145.62 154.29 146.00 150.19 146.00 C 146.38 146.00 143.71 146.54 142.44 147.58 C 140.53 149.14 140.53 149.15 142.50 148.52 C 143.64 148.15 142.69 149.42 140.31 151.46 C 129.94 160.35 126.80 178.69 131.57 202.50 C 132.34 206.35 133.98 212.20 135.22 215.50 L 137.47 221.50 L 138.15 215.50 C 139.04 207.65 142.40 198.86 145.96 195.05 C 152.16 188.41 152.79 193.49 147.09 204.17 C 144.94 208.20 142.38 214.20 141.41 217.50 C 140.43 220.80 139.34 223.85 138.98 224.29 C 138.62 224.72 136.93 222.02 135.22 218.29 Z M 483.66 215.23 C 482.10 210.43 479.52 204.48 477.93 202.00 C 475.07 197.55 474.02 192.00 476.05 192.00 C 480.19 192.00 486.79 204.94 487.72 214.87 L 488.33 221.45 L 490.24 216.97 C 491.29 214.51 492.98 208.90 494.00 204.50 C 499.52 180.66 496.38 160.62 485.69 151.46 C 483.31 149.42 482.36 148.15 483.50 148.52 C 485.47 149.15 485.47 149.14 483.56 147.58 C 482.29 146.54 479.62 146.00 475.81 146.00 C 471.71 146.00 470.00 145.62 470.00 144.70 C 470.00 142.57 472.21 141.00 475.20 141.00 C 476.74 141.00 478.00 140.50 478.00 139.89 C 478.00 139.28 477.29 139.06 476.42 139.39 C 475.55 139.73 474.06 140.00 473.11 140.00 C 472.16 140.00 470.39 140.92 469.19 142.04 C 467.38 143.73 467.00 145.18 467.00 150.48 C 467.00 157.69 465.80 159.25 462.67 156.12 C 459.42 152.86 459.78 146.89 463.46 143.04 C 465.06 141.37 467.19 140.00 468.19 140.00 C 469.18 140.00 470.00 139.55 470.00 139.00 C 470.00 137.54 468.90 137.77 465.30 139.96 C 461.10 142.52 459.39 146.11 458.72 153.82 C 458.37 157.91 457.53 160.86 456.36 162.15 C 454.55 164.16 454.55 164.16 452.77 161.97 C 450.77 159.49 450.45 153.95 452.12 150.68 C 452.73 149.48 455.07 146.59 457.33 144.25 C 461.43 139.99 461.27 139.19 456.66 140.94 C 452.74 142.43 450.13 145.94 449.42 150.69 C 448.62 156.01 446.63 155.93 446.18 150.56 C 445.79 145.86 448.22 142.98 456.00 138.96 L 461.50 136.12 L 456.00 136.67 C 439.57 138.31 430.09 144.76 426.89 156.46 C 425.62 161.13 426.99 166.99 430.08 170.08 C 431.82 171.82 431.86 172.12 430.43 172.66 C 429.40 173.06 427.71 172.17 425.73 170.19 C 423.12 167.58 422.57 166.16 422.20 161.10 C 421.83 155.97 422.21 154.15 424.78 148.65 C 430.10 137.29 439.85 129.98 451.50 128.62 C 456.73 128.00 456.34 128.40 448.70 131.43 C 445.32 132.77 445.02 133.17 445.98 134.97 C 446.58 136.09 447.59 137.00 448.24 137.00 C 449.10 137.00 449.09 136.69 448.20 135.80 C 446.23 133.83 446.76 133.24 452.10 131.47 C 464.64 127.30 479.77 133.79 486.00 146.00 C 487.83 149.59 487.86 149.88 486.26 149.29 C 485.29 148.93 486.35 150.67 488.61 153.15 C 498.45 163.93 501.37 184.37 495.90 204.10 C 493.69 212.09 488.54 224.01 487.31 223.98 C 486.87 223.96 485.22 220.03 483.66 215.23 Z M 109.57 213.50 C 108.10 211.57 106.25 208.44 105.45 206.53 C 103.84 202.68 103.48 191.44 104.93 190.54 C 106.57 189.53 109.00 194.31 109.00 198.54 C 109.00 200.79 109.85 205.87 110.89 209.82 C 111.92 213.77 112.65 217.00 112.50 217.00 C 112.36 217.00 111.04 215.42 109.57 213.50 Z M 514.54 212.32 C 515.37 209.46 516.44 203.93 516.93 200.03 C 518.40 188.30 521.98 186.86 521.96 198.00 C 521.96 203.99 519.79 209.60 515.61 214.50 L 513.05 217.50 L 514.54 212.32 Z M 134.42 209.25 C 133.27 205.44 132.75 200.65 132.87 195.07 C 133.38 172.06 138.49 159.33 149.34 154.08 C 153.73 151.95 158.57 151.27 157.55 152.92 C 157.24 153.42 157.41 154.95 157.93 156.32 C 158.95 158.99 159.26 158.77 149.75 162.16 C 146.52 163.31 139.64 168.97 140.46 169.80 C 140.70 170.03 142.10 169.28 143.58 168.11 C 146.21 166.04 150.00 165.25 150.00 166.77 C 150.00 167.19 147.96 169.87 145.47 172.72 C 137.54 181.78 136.47 185.30 136.77 201.25 C 136.91 208.81 136.83 215.00 136.58 215.00 C 136.34 215.00 135.36 212.41 134.42 209.25 Z M 489.25 201.40 C 489.50 185.28 488.42 181.73 480.53 172.72 C 478.04 169.87 476.00 167.19 476.00 166.77 C 476.00 165.25 479.79 166.04 482.42 168.11 C 483.90 169.28 485.30 170.03 485.54 169.80 C 486.36 168.97 479.48 163.31 476.25 162.16 C 466.74 158.77 467.05 158.99 468.07 156.32 C 468.59 154.95 468.72 153.35 468.35 152.76 C 467.90 152.03 468.90 151.89 471.48 152.30 C 479.74 153.64 487.44 161.81 490.52 172.50 C 491.32 175.25 492.37 182.68 492.86 189.00 C 493.61 198.78 493.48 201.52 491.97 207.32 C 490.99 211.07 489.93 214.40 489.61 214.72 C 489.29 215.04 489.13 209.05 489.25 201.40 Z M 146.05 208.35 C 147.87 203.25 153.88 196.10 158.24 193.85 C 165.44 190.14 176.14 191.65 178.87 196.76 C 179.72 198.34 179.10 198.50 172.15 198.52 C 163.19 198.53 155.91 201.37 149.15 207.49 L 145.03 211.20 L 146.05 208.35 Z M 477.45 207.94 C 475.84 206.26 471.60 203.45 468.03 201.69 C 462.44 198.94 460.48 198.50 453.87 198.50 C 446.89 198.50 446.28 198.34 447.13 196.76 C 448.60 194.01 454.09 191.65 459.00 191.65 C 465.16 191.66 471.28 195.04 475.48 200.77 C 478.38 204.75 481.54 211.00 480.64 211.00 C 480.49 211.00 479.06 209.62 477.45 207.94 Z M 131.14 184.36 C 130.87 160.61 137.85 149.44 154.75 146.60 C 157.49 146.14 158.00 146.36 158.00 147.99 C 158.00 149.42 156.90 150.21 153.75 151.04 C 144.58 153.45 137.53 160.96 134.41 171.68 C 133.58 174.52 132.54 181.27 132.09 186.68 L 131.28 196.50 L 131.14 184.36 Z M 494.21 190.50 C 493.39 168.59 486.23 155.16 473.37 151.42 C 469.30 150.24 468.00 149.40 468.00 147.95 C 468.00 146.36 468.53 146.14 471.25 146.60 C 482.67 148.52 489.61 154.63 492.98 165.71 C 494.71 171.39 495.01 174.64 494.75 184.54 C 494.57 191.12 494.33 193.80 494.21 190.50 Z M 435.31 190.53 C 430.45 188.42 423.13 181.17 420.17 175.54 C 417.92 171.24 417.53 169.26 417.53 162.00 C 417.53 154.72 417.91 152.77 420.21 148.39 C 421.68 145.58 424.08 141.87 425.53 140.14 C 427.99 137.23 428.03 137.00 426.19 137.00 C 423.58 137.00 418.71 142.65 415.03 149.94 C 413.40 153.16 410.87 156.74 409.40 157.90 C 406.17 160.44 402.49 160.76 403.39 158.42 C 403.73 157.55 404.00 156.45 404.00 155.98 C 404.00 155.50 406.67 153.06 409.94 150.55 C 413.21 148.03 416.90 144.52 418.15 142.74 C 419.85 140.31 418.90 140.89 414.34 145.07 C 406.41 152.35 402.15 154.33 393.50 154.77 C 384.75 155.21 378.57 152.49 375.56 146.87 C 373.71 143.41 373.70 143.11 375.33 140.62 C 376.52 138.81 377.92 138.00 379.90 138.00 C 384.71 138.00 386.02 141.32 383.55 147.19 C 382.97 148.56 383.82 149.17 388.10 150.44 C 394.44 152.32 398.26 152.35 403.25 150.57 C 407.46 149.07 414.44 144.10 413.56 143.23 C 413.25 142.92 411.98 143.61 410.73 144.78 C 407.16 148.14 401.55 150.01 395.28 149.93 C 386.59 149.82 385.58 149.17 385.54 143.66 C 385.52 141.10 385.83 139.00 386.24 139.00 C 386.64 139.00 388.17 140.81 389.63 143.02 C 392.60 147.50 395.24 148.57 400.76 147.49 L 404.50 146.76 L 399.85 145.38 C 396.89 144.50 394.08 142.72 392.10 140.47 C 388.40 136.25 388.28 135.43 391.25 134.63 C 395.28 133.55 397.62 133.96 402.56 136.58 C 406.11 138.47 408.56 139.08 411.63 138.83 C 414.78 138.58 415.59 138.79 414.85 139.69 C 412.62 142.36 408.24 142.16 400.42 139.03 C 396.17 137.33 392.24 136.09 391.70 136.27 C 391.15 136.45 394.46 138.08 399.05 139.90 C 405.11 142.29 408.34 143.04 410.82 142.64 C 414.88 141.98 418.00 139.44 418.00 136.79 C 418.00 135.02 417.84 135.00 415.78 136.44 C 412.40 138.81 407.61 138.38 404.08 135.41 C 402.38 133.99 401.00 132.41 401.00 131.91 C 401.00 130.50 405.46 130.84 408.64 132.49 C 410.21 133.32 412.34 133.99 413.36 133.99 C 414.85 134.00 414.56 133.37 411.86 130.80 C 409.12 128.19 408.82 127.53 410.21 127.23 C 411.15 127.03 413.99 128.08 416.51 129.56 C 420.10 131.66 421.95 132.14 424.99 131.73 L 428.89 131.21 L 424.77 134.35 C 422.51 136.08 420.45 138.18 420.20 139.00 C 419.95 139.82 421.58 138.75 423.81 136.61 C 426.40 134.13 429.61 132.26 432.68 131.43 C 435.84 130.58 436.64 130.11 435.00 130.05 C 433.01 129.99 432.81 129.77 434.00 129.00 C 436.12 127.63 434.81 127.77 428.17 129.61 C 422.54 131.18 422.24 131.16 418.09 129.04 C 415.73 127.84 413.99 126.68 414.21 126.45 C 414.44 126.23 419.56 126.41 425.61 126.84 C 431.65 127.28 438.82 127.37 441.55 127.04 L 446.50 126.43 L 442.50 124.99 C 438.18 123.43 421.59 122.97 416.50 124.26 C 413.83 124.94 413.72 124.89 415.50 123.76 C 416.80 122.94 421.39 122.50 428.67 122.50 C 434.81 122.50 439.65 122.31 439.42 122.08 C 439.19 121.85 436.48 121.32 433.40 120.90 C 424.95 119.76 417.01 121.47 406.66 126.67 C 394.64 132.71 388.38 134.82 377.63 136.43 C 365.29 138.29 362.58 137.43 359.43 130.68 L 357.02 125.50 L 359.13 125.16 C 360.32 124.97 363.46 126.33 366.37 128.30 C 373.08 132.84 375.43 134.00 377.92 134.00 C 379.05 134.00 384.25 131.76 389.47 129.02 C 402.48 122.19 409.66 119.96 421.47 119.09 L 431.50 118.36 L 427.50 116.51 C 424.27 115.01 420.80 114.63 409.50 114.51 C 393.34 114.34 389.03 113.03 382.17 106.17 C 377.45 101.45 375.65 96.31 377.17 91.96 C 378.22 88.94 380.00 88.81 380.00 91.75 C 380.00 93.63 383.97 99.76 385.59 100.39 C 386.33 100.68 386.54 99.22 386.22 95.89 C 385.80 91.59 385.96 91.05 387.41 91.61 C 388.33 91.96 389.97 93.98 391.05 96.10 C 395.24 104.31 403.02 110.03 413.50 112.60 C 416.27 113.28 416.39 113.20 415.06 111.58 C 414.26 110.62 410.66 108.34 407.06 106.53 C 398.72 102.32 396.55 99.93 396.55 94.98 C 396.55 90.21 400.44 85.29 402.71 87.18 C 403.75 88.04 403.93 89.69 403.44 93.67 C 402.73 99.29 403.15 99.99 405.70 97.44 C 407.12 96.02 407.43 96.25 409.02 99.80 C 411.88 106.19 417.54 109.75 435.64 116.51 C 441.76 118.80 448.96 121.97 451.64 123.55 L 456.50 126.43 L 451.00 127.23 C 436.65 129.32 424.25 141.01 421.00 155.48 C 419.72 161.22 420.98 166.64 424.62 170.95 C 427.79 174.72 430.84 174.85 434.97 171.38 C 438.57 168.35 439.41 168.54 437.68 172.01 C 436.01 175.36 432.19 177.17 428.00 176.58 L 424.50 176.09 L 427.31 178.55 C 432.99 183.52 441.00 180.01 441.00 172.55 C 441.00 169.67 441.38 169.00 443.00 169.00 C 445.91 169.00 449.00 172.55 449.00 175.91 C 449.00 179.94 444.10 183.99 439.17 184.03 C 436.04 184.06 435.78 184.22 437.37 185.15 C 440.44 186.93 448.71 185.62 451.63 182.89 C 455.16 179.59 457.00 175.74 457.00 171.63 C 457.00 166.79 457.85 165.01 459.83 165.72 C 469.99 169.30 466.07 184.39 453.50 190.13 C 448.73 192.31 439.85 192.51 435.31 190.53 Z M 177.03 183.16 C 172.86 180.92 169.75 175.31 170.19 170.81 C 170.50 167.53 170.53 167.55 172.28 172.58 C 173.95 177.37 178.70 183.10 182.00 184.30 C 183.32 184.78 183.32 184.85 181.98 184.92 C 181.15 184.96 178.92 184.17 177.03 183.16 Z M 444.00 184.38 C 447.44 182.94 452.07 177.32 453.72 172.58 C 455.44 167.64 455.50 167.59 455.81 170.72 C 456.43 177.09 451.77 183.22 445.35 184.46 C 443.78 184.76 443.17 184.73 444.00 184.38 Z M 188.45 177.55 C 187.10 176.20 186.01 174.28 186.02 173.30 C 186.04 171.69 186.23 171.73 187.77 173.63 C 189.91 176.27 193.14 177.98 196.18 178.07 C 198.37 178.14 198.39 178.19 196.50 179.00 C 193.08 180.47 191.00 180.09 188.45 177.55 Z M 430.17 179.13 C 429.23 178.53 429.75 178.10 431.95 177.66 C 433.66 177.32 436.17 175.84 437.53 174.37 C 439.47 172.28 440.00 172.07 440.00 173.40 C 440.00 175.64 435.56 180.00 433.30 179.98 C 432.31 179.98 430.90 179.59 430.17 179.13 Z M 258.11 143.73 C 255.69 143.05 253.09 141.55 252.33 140.39 C 250.98 138.33 251.05 138.30 255.95 138.77 C 260.60 139.22 261.19 139.01 264.39 135.81 C 266.35 133.85 268.32 130.54 268.98 128.07 C 270.22 123.48 273.91 119.00 276.45 119.00 C 277.70 119.00 278.00 120.34 278.00 125.87 C 278.00 133.62 276.07 137.19 270.58 139.58 L 267.50 140.92 L 270.60 140.96 C 272.36 140.98 275.17 139.94 277.10 138.54 C 278.97 137.18 283.09 134.70 286.25 133.02 C 290.82 130.60 292.00 130.29 292.00 131.53 C 292.00 132.39 290.85 134.24 289.44 135.65 C 288.03 137.06 287.13 138.46 287.43 138.76 C 287.73 139.07 291.13 136.09 294.98 132.16 C 298.83 128.22 301.71 125.00 301.37 125.00 C 301.03 125.00 301.32 124.32 302.00 123.50 C 302.68 122.68 303.73 122.00 304.31 122.00 C 304.90 122.00 304.51 122.71 303.44 123.58 C 301.78 124.93 301.76 125.08 303.25 124.61 C 305.49 123.91 305.53 126.07 303.36 130.64 C 301.38 134.82 294.96 139.41 287.23 142.16 C 280.17 144.68 264.50 145.52 258.11 143.73 Z M 344.91 143.95 C 338.95 142.54 331.00 139.10 327.49 136.43 C 322.38 132.52 318.69 123.34 322.75 124.61 C 324.24 125.08 324.22 124.93 322.56 123.58 C 321.49 122.71 321.10 122.00 321.69 122.00 C 322.27 122.00 323.32 122.68 324.00 123.50 C 324.68 124.32 324.97 125.00 324.63 125.00 C 324.29 125.00 327.17 128.22 331.02 132.16 C 334.87 136.09 338.27 139.07 338.57 138.76 C 338.87 138.46 337.97 137.06 336.56 135.65 C 335.15 134.24 334.00 132.39 334.00 131.53 C 334.00 130.28 335.13 130.54 339.81 132.90 C 343.01 134.52 346.21 136.55 346.93 137.42 C 347.65 138.29 348.71 139.00 349.28 139.00 C 351.53 139.00 346.21 134.58 341.34 132.41 C 338.51 131.14 335.52 129.15 334.70 127.98 C 332.94 125.47 331.56 126.89 332.49 130.26 C 333.03 132.22 332.82 132.15 330.80 129.62 C 329.54 128.04 326.40 124.67 323.83 122.12 C 317.04 115.41 315.51 108.39 318.57 98.09 C 321.28 88.94 331.48 80.08 339.36 80.02 C 341.98 80.00 342.16 80.23 341.53 82.75 C 341.15 84.26 340.76 85.52 340.67 85.54 C 340.58 85.56 338.69 86.74 336.48 88.15 C 330.06 92.26 326.66 98.03 326.17 105.65 C 325.43 117.29 331.00 125.79 341.93 129.67 C 344.72 130.66 347.00 131.98 347.00 132.60 C 347.00 133.22 347.84 134.80 348.88 136.12 C 349.91 137.43 350.70 138.95 350.63 139.50 C 350.56 140.05 352.30 140.61 354.50 140.75 L 358.50 141.00 L 355.42 139.62 C 349.91 137.15 348.00 133.61 348.00 125.87 C 348.00 120.34 348.30 119.00 349.55 119.00 C 352.09 119.00 355.78 123.48 357.02 128.07 C 357.68 130.54 359.65 133.85 361.61 135.81 C 364.81 139.01 365.40 139.22 370.05 138.77 C 374.95 138.30 375.02 138.33 373.67 140.39 C 372.91 141.55 370.31 143.03 367.89 143.67 C 362.79 145.03 350.11 145.18 344.91 143.95 Z M 276.82 136.62 C 278.02 135.03 279.00 133.22 279.00 132.60 C 279.00 131.98 281.28 130.66 284.07 129.67 C 295.00 125.79 300.57 117.29 299.83 105.65 C 299.34 98.03 295.94 92.26 289.52 88.15 C 287.31 86.74 285.42 85.56 285.33 85.54 C 285.24 85.52 284.85 84.26 284.47 82.75 C 283.83 80.19 284.00 80.00 286.93 80.00 C 294.53 80.00 304.74 89.01 307.43 98.09 C 310.49 108.39 308.96 115.41 302.17 122.12 C 299.60 124.67 296.46 128.04 295.20 129.62 C 293.18 132.15 292.97 132.22 293.51 130.26 C 294.44 126.87 293.06 125.47 291.28 128.01 C 290.45 129.20 287.68 131.06 285.13 132.15 C 282.59 133.24 279.18 135.34 277.57 136.81 L 274.64 139.50 L 276.82 136.62 Z M 311.54 130.83 C 311.29 130.10 310.93 128.15 310.73 126.50 C 310.43 123.91 310.28 123.78 309.62 125.50 C 307.12 132.04 305.41 132.37 305.64 126.26 C 305.74 123.64 306.75 119.47 307.89 117.00 C 310.44 111.44 310.62 103.17 308.32 96.44 C 305.01 86.71 290.53 76.04 284.80 79.11 C 283.19 79.97 282.93 80.82 283.44 83.51 C 284.21 87.64 282.74 88.74 280.04 86.04 C 277.80 83.80 277.44 80.91 279.04 77.93 C 280.66 74.91 278.34 75.55 276.27 78.71 C 274.99 80.66 274.57 83.01 274.75 87.14 C 275.04 93.51 273.89 95.11 270.94 92.44 C 267.13 89.00 269.93 78.11 275.05 76.48 C 277.80 75.61 277.48 74.00 274.55 74.00 C 272.94 74.00 271.21 75.16 269.52 77.39 C 266.94 80.77 262.00 82.84 262.00 80.54 C 262.00 78.92 266.59 75.07 270.38 73.50 C 272.09 72.79 276.60 72.16 280.38 72.11 C 286.06 72.04 288.12 72.49 292.17 74.69 C 303.41 80.81 310.87 93.31 311.75 107.54 C 312.04 112.19 312.61 116.00 313.00 116.00 C 313.39 116.00 313.96 112.19 314.25 107.54 C 315.13 93.31 322.59 80.81 333.83 74.69 C 342.08 70.20 354.72 71.30 361.37 77.08 C 364.72 79.98 364.79 81.87 361.53 81.25 C 360.18 80.99 357.91 79.25 356.48 77.39 C 354.79 75.16 353.06 74.00 351.45 74.00 C 348.52 74.00 348.20 75.61 350.95 76.48 C 356.07 78.11 358.87 89.00 355.06 92.44 C 352.11 95.11 350.96 93.51 351.25 87.14 C 351.43 83.01 351.01 80.66 349.73 78.71 C 347.66 75.55 345.34 74.91 346.96 77.93 C 348.56 80.91 348.20 83.80 345.96 86.04 C 343.29 88.71 341.79 87.64 342.55 83.61 C 342.97 81.36 342.69 79.99 341.65 79.13 C 338.33 76.37 327.13 82.02 321.62 89.25 C 315.81 96.88 314.31 108.72 318.11 117.00 C 320.06 121.24 321.30 131.00 319.89 131.00 C 318.85 131.00 317.24 128.66 316.86 126.58 C 316.21 123.13 314.50 123.91 314.50 127.66 C 314.50 131.25 312.45 133.46 311.54 130.83 Z M 222.50 121.29 C 218.37 119.81 212.24 118.55 207.56 118.23 C 201.52 117.82 200.17 117.48 201.95 116.82 C 204.38 115.92 207.85 115.83 229.25 116.05 C 243.22 116.19 244.08 116.65 239.36 121.36 C 236.02 124.71 231.98 124.69 222.50 121.29 Z M 386.72 121.45 C 381.91 116.64 382.74 116.19 396.75 116.05 C 418.15 115.83 421.62 115.92 424.05 116.82 C 425.83 117.48 424.48 117.82 418.44 118.24 C 414.04 118.54 407.82 119.78 404.50 121.01 C 401.20 122.23 396.46 123.43 393.97 123.69 C 390.04 124.10 389.08 123.80 386.72 121.45 Z M 236.75 112.94 C 242.47 110.05 249.76 101.81 250.61 97.28 C 251.13 94.51 250.68 92.49 248.59 88.24 C 247.11 85.23 246.11 82.56 246.36 82.31 C 247.18 81.49 252.92 84.97 253.96 86.92 C 254.68 88.27 254.58 89.78 253.61 92.16 C 252.86 94.00 251.93 97.75 251.55 100.50 C 251.16 103.25 250.20 106.51 249.41 107.74 C 247.64 110.50 241.82 113.50 236.50 114.41 L 232.50 115.10 L 236.75 112.94 Z M 255.45 112.55 C 253.32 110.41 253.00 109.19 253.00 103.13 C 253.00 97.23 253.49 95.22 256.25 89.92 C 258.04 86.47 260.10 83.46 260.84 83.22 C 261.57 82.97 260.81 84.66 259.14 86.96 C 255.10 92.55 253.16 100.97 255.06 104.75 C 255.82 106.26 256.62 107.91 256.85 108.41 C 257.08 108.91 256.54 109.04 255.64 108.69 C 253.58 107.90 253.52 109.37 255.53 111.39 C 257.52 113.38 259.05 112.70 261.47 108.73 L 263.45 105.50 L 263.79 108.82 C 264.43 114.98 259.91 117.00 255.45 112.55 Z M 363.20 113.80 C 361.74 112.34 361.60 107.00 363.02 107.00 C 363.58 107.00 364.54 108.10 365.16 109.44 C 366.59 112.60 368.55 113.31 370.47 111.39 C 372.43 109.43 372.44 107.89 370.50 108.64 C 368.61 109.36 368.63 108.08 370.53 105.56 C 371.34 104.49 372.00 102.66 372.00 101.49 C 372.00 97.41 368.93 89.07 366.25 85.89 C 364.74 84.09 364.20 82.90 365.03 83.17 C 365.84 83.44 367.96 86.47 369.75 89.92 C 372.51 95.22 373.00 97.23 373.00 103.13 C 373.00 109.19 372.68 110.41 370.55 112.55 C 367.88 115.21 365.09 115.69 363.20 113.80 Z M 387.50 114.06 C 382.90 112.95 378.17 110.20 376.59 107.73 C 375.80 106.50 374.84 103.25 374.45 100.50 C 374.07 97.75 373.14 94.00 372.39 92.16 C 371.42 89.78 371.32 88.27 372.04 86.92 C 373.08 84.97 378.82 81.49 379.64 82.31 C 379.89 82.56 378.89 85.23 377.41 88.24 C 375.32 92.49 374.87 94.51 375.39 97.28 C 376.25 101.83 383.57 110.08 389.25 112.89 C 393.55 115.02 392.98 115.40 387.50 114.06 Z M 196.18 108.49 C 198.75 103.73 201.40 101.00 203.43 101.00 C 204.42 101.00 204.05 105.80 202.86 108.40 C 201.97 110.36 195.93 114.00 193.58 114.00 C 193.36 114.00 194.53 111.52 196.18 108.49 Z M 427.89 112.40 C 424.11 110.83 422.00 107.62 422.00 103.45 C 422.00 100.57 422.75 100.43 425.60 102.77 C 427.79 104.58 433.36 114.04 432.18 113.95 C 431.81 113.92 429.87 113.22 427.89 112.40 Z M 257.24 109.92 C 258.86 108.98 258.87 108.73 257.37 106.44 C 253.44 100.45 258.59 85.39 265.56 82.52 L 268.62 81.26 L 268.19 84.38 C 267.96 86.10 266.71 88.63 265.42 90.01 C 262.64 92.99 259.81 100.48 260.13 104.00 C 260.47 107.73 259.09 111.00 257.18 110.97 C 255.64 110.94 255.65 110.85 257.24 109.92 Z M 366.34 109.18 C 365.72 108.18 365.43 106.19 365.71 104.76 C 366.38 101.21 364.36 95.23 361.04 90.99 C 359.53 89.07 358.09 86.09 357.84 84.37 L 357.38 81.26 L 360.44 82.52 C 367.41 85.39 372.56 100.45 368.63 106.44 C 367.13 108.73 367.14 108.98 368.76 109.92 C 370.14 110.73 370.19 110.95 368.99 110.97 C 368.16 110.99 366.97 110.18 366.34 109.18 Z M 206.08 106.20 C 206.81 104.12 206.82 102.01 206.13 99.50 C 205.13 95.87 205.14 95.85 207.31 97.29 C 210.41 99.35 210.38 105.67 207.26 107.74 C 205.06 109.20 205.04 109.18 206.08 106.20 Z M 418.35 107.53 C 414.56 104.88 414.82 99.24 418.83 97.09 C 420.66 96.11 420.72 96.28 419.89 99.98 C 419.36 102.37 419.39 104.89 419.98 106.45 C 421.12 109.43 421.09 109.45 418.35 107.53 Z M 312.68 101.00 C 312.39 100.18 311.63 97.81 311.00 95.75 C 307.20 83.39 293.34 70.81 283.29 70.59 C 279.32 70.51 279.16 70.39 280.41 68.50 C 282.94 64.67 286.28 64.40 291.55 67.60 C 296.63 70.69 301.74 75.28 303.69 78.52 C 304.35 79.61 304.91 79.99 304.94 79.36 C 304.97 78.73 303.50 76.03 301.67 73.36 C 297.55 67.34 290.32 63.06 284.22 63.02 C 278.34 62.99 273.00 65.33 273.00 67.95 C 273.00 70.46 270.38 70.66 267.83 68.35 C 266.12 66.80 266.00 66.81 265.96 68.60 C 265.95 69.64 265.35 71.54 264.64 72.82 C 263.50 74.89 263.22 74.97 262.05 73.56 C 260.13 71.25 260.46 67.22 262.84 64.01 C 264.57 61.67 264.67 61.09 263.46 60.62 C 262.66 60.32 262.00 59.54 262.00 58.90 C 262.00 58.06 264.92 57.87 272.50 58.20 C 278.27 58.46 283.00 58.34 283.00 57.94 C 283.00 56.72 280.08 56.00 275.12 56.00 C 270.33 56.00 268.00 54.75 268.00 52.18 C 268.00 51.07 269.35 50.85 274.37 51.17 C 280.53 51.57 281.06 51.82 290.62 59.14 C 299.38 65.85 303.71 70.28 307.69 76.61 C 308.35 77.65 308.91 78.01 308.94 77.42 C 309.10 74.43 302.01 66.43 293.35 59.84 C 283.44 52.29 281.00 49.17 281.00 44.05 C 281.00 40.65 281.21 40.53 284.32 42.12 C 287.91 43.97 291.02 47.20 294.60 52.75 C 296.46 55.64 298.47 58.00 299.07 58.00 C 299.67 58.00 299.99 57.66 299.78 57.25 C 297.60 53.02 295.99 48.68 296.42 48.24 C 296.72 47.95 298.94 49.68 301.36 52.10 C 305.04 55.78 305.94 57.48 306.89 62.50 C 309.45 76.09 310.19 79.00 311.22 79.64 C 313.11 80.81 311.40 65.69 309.04 60.33 C 306.25 54.02 299.86 47.52 293.00 44.02 C 289.98 42.48 286.64 40.27 285.60 39.11 L 283.69 37.00 L 287.62 37.00 C 289.79 37.00 292.56 37.70 293.78 38.56 C 297.81 41.38 296.09 38.21 291.59 34.52 C 285.84 29.81 284.85 27.16 290.29 31.06 C 298.60 37.01 304.07 43.30 308.07 51.48 C 310.22 55.89 311.99 58.83 311.99 58.00 C 311.99 57.17 310.67 53.69 309.05 50.26 C 306.17 44.17 298.71 35.72 291.00 29.82 C 287.87 27.43 287.77 27.21 290.00 27.71 C 291.38 28.03 293.36 29.01 294.41 29.89 C 296.20 31.40 296.28 31.37 295.78 29.38 C 295.36 27.68 295.63 27.35 297.12 27.74 C 298.15 28.01 300.08 27.52 301.40 26.66 L 303.80 25.09 L 303.25 29.14 C 302.74 32.96 302.98 33.45 307.44 37.60 C 310.04 40.02 312.58 42.00 313.08 42.00 C 313.58 42.00 316.07 39.95 318.62 37.44 C 322.89 33.23 323.21 32.57 322.72 28.98 L 322.20 25.09 L 324.60 26.66 C 325.92 27.52 327.85 28.01 328.88 27.74 C 330.37 27.35 330.64 27.68 330.22 29.38 C 329.72 31.37 329.80 31.40 331.59 29.89 C 332.64 29.01 334.62 28.03 336.00 27.71 C 338.23 27.21 338.13 27.43 335.00 29.82 C 327.29 35.72 319.83 44.17 316.95 50.26 C 315.33 53.69 314.02 57.17 314.04 58.00 C 314.06 58.83 315.59 56.26 317.45 52.30 C 321.11 44.50 327.49 36.99 335.11 31.52 C 341.01 27.28 340.48 29.54 334.41 34.52 C 329.91 38.21 328.19 41.38 332.22 38.56 C 333.44 37.70 336.21 37.00 338.38 37.00 L 342.31 37.00 L 340.40 39.11 C 339.36 40.27 336.02 42.48 333.00 44.02 C 326.14 47.52 319.75 54.02 316.96 60.33 C 314.60 65.69 312.89 80.81 314.78 79.64 C 315.81 79.00 316.55 76.09 319.11 62.50 C 320.06 57.48 320.96 55.78 324.64 52.10 C 327.06 49.68 329.28 47.95 329.58 48.24 C 330.01 48.68 328.40 53.02 326.22 57.25 C 326.01 57.66 326.33 58.00 326.93 58.00 C 327.53 58.00 329.54 55.64 331.40 52.75 C 334.98 47.20 338.09 43.97 341.68 42.12 C 344.79 40.53 345.00 40.65 345.00 44.05 C 345.00 48.99 342.58 52.32 334.65 58.29 C 326.04 64.77 320.43 70.29 318.33 74.34 C 315.95 78.93 317.52 78.49 320.29 73.80 C 323.25 68.78 325.55 66.58 336.86 57.95 C 344.79 51.91 345.55 51.56 351.61 51.17 C 356.65 50.85 358.00 51.07 358.00 52.18 C 358.00 54.75 355.67 56.00 350.88 56.00 C 348.29 56.00 345.45 56.27 344.58 56.61 C 340.86 58.04 343.67 58.53 353.50 58.16 C 360.95 57.89 364.00 58.11 364.00 58.92 C 364.00 59.55 363.34 60.32 362.54 60.62 C 361.33 61.09 361.43 61.67 363.16 64.01 C 365.54 67.22 365.87 71.25 363.95 73.56 C 362.78 74.97 362.50 74.89 361.36 72.82 C 360.65 71.54 360.05 69.64 360.04 68.60 C 360.00 66.81 359.88 66.80 358.17 68.35 C 355.65 70.62 353.00 70.46 353.00 68.03 C 353.00 62.71 340.57 61.34 332.58 65.77 C 327.91 68.36 320.92 76.60 321.06 79.36 C 321.09 79.99 321.65 79.61 322.31 78.52 C 324.26 75.28 329.37 70.69 334.45 67.60 C 339.75 64.38 343.06 64.67 345.65 68.58 C 346.97 70.58 346.85 70.67 342.76 70.67 C 332.02 70.70 318.01 84.17 314.40 97.93 C 313.72 100.55 312.98 101.86 312.68 101.00 Z M 276.16 83.00 C 276.16 81.62 276.38 81.06 276.66 81.75 C 276.94 82.44 276.94 83.56 276.66 84.25 C 276.38 84.94 276.16 84.38 276.16 83.00 Z M 349.16 83.00 C 349.16 81.62 349.38 81.06 349.66 81.75 C 349.94 82.44 349.94 83.56 349.66 84.25 C 349.38 84.94 349.16 84.38 349.16 83.00 Z M 271.50 77.00 C 272.50 75.90 273.53 75.00 273.81 75.00 C 274.08 75.00 273.50 75.90 272.50 77.00 C 271.50 78.10 270.47 79.00 270.19 79.00 C 269.92 79.00 270.50 78.10 271.50 77.00 Z M 353.40 76.75 L 351.50 74.50 L 353.75 76.40 C 354.99 77.45 356.00 78.47 356.00 78.65 C 356.00 79.46 355.20 78.86 353.40 76.75 Z M 310.63 38.75 C 309.85 37.51 308.90 35.47 308.52 34.20 C 307.92 32.17 309.21 20.99 310.69 15.50 C 311.05 14.17 310.89 13.83 310.23 14.50 C 309.09 15.64 307.00 26.99 307.00 32.05 C 307.00 35.25 306.91 35.34 305.28 33.71 C 303.65 32.08 303.65 31.62 305.29 25.24 C 307.24 17.61 307.41 15.37 306.07 14.54 C 305.55 14.22 305.17 15.21 305.21 16.74 C 305.34 21.28 304.04 23.93 300.86 25.57 C 297.24 27.45 295.00 26.16 295.00 22.20 C 295.00 19.49 301.08 13.08 306.82 9.74 C 309.57 8.14 309.98 8.12 311.42 9.56 C 312.86 11.00 313.14 11.00 314.58 9.56 C 316.02 8.12 316.43 8.14 319.18 9.74 C 324.92 13.08 331.00 19.49 331.00 22.20 C 331.00 26.14 328.76 27.45 325.18 25.59 C 321.91 23.90 319.83 19.37 320.73 15.91 C 321.13 14.38 320.96 13.91 320.16 14.40 C 318.58 15.38 318.70 18.91 320.50 24.00 C 321.33 26.34 322.00 29.26 322.00 30.50 C 322.00 31.74 321.33 33.32 320.50 34.00 C 319.22 35.06 319.00 34.77 319.00 31.95 C 319.00 27.07 316.92 15.65 315.82 14.50 C 315.20 13.86 315.05 14.39 315.41 16.00 C 318.35 29.42 318.30 35.77 315.23 39.25 C 313.20 41.55 312.34 41.46 310.63 38.75 Z" stroke-linecap="round"/>
</g>
</g>
</g>

  </svg>